<svg xmlns="http://www.w3.org/2000/svg" xmlns:xlink="http://www.w3.org/1999/xlink" viewBox="0 0 375.63 452.35"><defs><style>.cls-1{fill:#fffefa;}.cls-2{fill:#000c24;}.cls-3{fill:#a8a8a8;}.cls-4{fill:#f7d900;}.cls-5{fill:#fa0;}.cls-6{fill:#e08f00;}.cls-7{fill:#f8b900;}.cls-8{fill:#e0a103;}.cls-9{fill:#bd7200;}.cls-10{fill:url(#Degradado_sin_nombre_61);}.cls-11{fill:url(#Degradado_sin_nombre_61-2);}.cls-12{fill:url(#Degradado_sin_nombre_61-3);}.cls-13{fill:url(#Degradado_sin_nombre_61-4);}.cls-14{fill:url(#Degradado_sin_nombre_61-5);}.cls-15{fill:url(#Degradado_sin_nombre_61-6);}.cls-16{fill:#fff;}.cls-17{fill:url(#Degradado_sin_nombre_60);}.cls-18{fill:url(#Degradado_sin_nombre_60-2);}.cls-19{fill:url(#Degradado_sin_nombre_60-3);}.cls-20{fill:url(#Degradado_sin_nombre_60-4);}.cls-21{fill:url(#Degradado_sin_nombre_60-5);}.cls-22{fill:url(#Degradado_sin_nombre_60-6);}.cls-23{fill:url(#Degradado_sin_nombre_60-7);}</style><linearGradient id="Degradado_sin_nombre_61" x1="95.86" y1="371.68" x2="95.86" y2="348.82" gradientUnits="userSpaceOnUse"><stop offset="0.12" stop-color="#000c24" stop-opacity="0.3"/><stop offset="0.44" stop-color="#ff9c00"/></linearGradient><linearGradient id="Degradado_sin_nombre_61-2" x1="130.57" y1="368.8" x2="130.57" y2="348.82" xlink:href="#Degradado_sin_nombre_61"/><linearGradient id="Degradado_sin_nombre_61-3" x1="165.6" y1="364.95" x2="165.6" y2="348.82" xlink:href="#Degradado_sin_nombre_61"/><linearGradient id="Degradado_sin_nombre_61-4" x1="200.63" y1="364.95" x2="200.63" y2="348.82" xlink:href="#Degradado_sin_nombre_61"/><linearGradient id="Degradado_sin_nombre_61-5" x1="235.77" y1="368.8" x2="235.77" y2="348.82" xlink:href="#Degradado_sin_nombre_61"/><linearGradient id="Degradado_sin_nombre_61-6" x1="270.69" y1="373.61" x2="270.69" y2="348.82" xlink:href="#Degradado_sin_nombre_61"/><linearGradient id="Degradado_sin_nombre_60" x1="51.2" y1="245.8" x2="51.2" y2="376.39" gradientUnits="userSpaceOnUse"><stop offset="0.02" stop-color="#263044" stop-opacity="0.2"/><stop offset="0.16" stop-color="#fff"/><stop offset="0.65" stop-color="#f1f1f3" stop-opacity="0.92"/><stop offset="0.77" stop-color="#626978" stop-opacity="0.5"/><stop offset="0.95" stop-color="#000c24" stop-opacity="0.6"/></linearGradient><linearGradient id="Degradado_sin_nombre_60-2" x1="92.84" y1="243.94" x2="92.84" y2="342.72" xlink:href="#Degradado_sin_nombre_60"/><linearGradient id="Degradado_sin_nombre_60-3" x1="143.24" y1="245.8" x2="143.24" y2="342.72" xlink:href="#Degradado_sin_nombre_60"/><linearGradient id="Degradado_sin_nombre_60-4" x1="175.06" y1="245.8" x2="175.06" y2="342.72" xlink:href="#Degradado_sin_nombre_60"/><linearGradient id="Degradado_sin_nombre_60-5" x1="215.19" y1="245.8" x2="215.19" y2="342.72" xlink:href="#Degradado_sin_nombre_60"/><linearGradient id="Degradado_sin_nombre_60-6" x1="265.1" y1="243.94" x2="265.1" y2="344.59" xlink:href="#Degradado_sin_nombre_60"/><linearGradient id="Degradado_sin_nombre_60-7" x1="317.77" y1="243.94" x2="317.77" y2="376.34" xlink:href="#Degradado_sin_nombre_60"/></defs><title>Recurso 7</title><g id="Capa_2" data-name="Capa 2"><g id="text"><path class="cls-1" d="M78.16,61l0,.07h0Z"/><path class="cls-1" d="M56.25,59.47q-.3.16-.6.36c.2-.13.4-.24.6-.35Z"/><path class="cls-1" d="M79.28,90h0Z"/><path class="cls-1" d="M189.36,28.07h0Z"/><path class="cls-1" d="M330.16,110h0l0,0Z"/><path class="cls-1" d="M322.77,28.38h0l.15.26Z"/><path class="cls-1" d="M93.47,76.77l-.22.06h0Z"/><path class="cls-1" d="M320.08,42h0l-.1.18h0A1,1,0,0,0,320.08,42Z"/><path class="cls-1" d="M308.34,176.29c-.11-.3-.24-.59-.38-.89h0C308.1,175.7,308.23,176,308.34,176.29Z"/><path class="cls-1" d="M74.26,172h0Z"/><path class="cls-1" d="M319.84,42.4a16.17,16.17,0,0,1-1.41,1.88,16.17,16.17,0,0,0,1.41-1.88Z"/><path class="cls-1" d="M99.17,89.36V87.44c-4.34,3.22-12,7.85-20,7.85-8.72,0-19.43-5.3-22.39-29.68a11.13,11.13,0,0,0-2,2.51c-2.17,3.8-5.74,15.14,8,38.5,12.22,20.78,21.7,29,29.46,34.71C96,126,99.55,110.56,102.59,95.05l-2.54-4.22Zm-9.88,43.13c-6.4-5.64-13.56-13.81-22.14-28.41A88.15,88.15,0,0,1,60.93,91.5a22.86,22.86,0,0,0,18.28,8.79c6.47,0,12.58-2.42,17.53-5.27l.57,1C95.07,107.24,92.43,119.26,89.29,132.49Z"/><polygon class="cls-1" points="295.83 184.6 295.83 184.6 295.83 184.6 295.83 184.6"/><path class="cls-1" d="M295.54,184.59h0Z"/><path class="cls-1" d="M293,175.92s0,0,0-.07l0,.06Z"/><path class="cls-1" d="M300.67,171.07h0Z"/><path class="cls-1" d="M375.07,374.35l-.87-4.17-1.29-6.24-7-33.7L359.82,301h0l-1.25-6-1.92-9.27-2.89-13.89-5-24.26-.24-1.11-.82-4-1.82-9.75-1.16-6.28-.76-4.09H333.36c-2.71,0-8.36,0-14.66-.26h-7.92c-1.27-5.15-2.64-10.48-4.15-16.13a41.07,41.07,0,0,0,12.51-20.06l.1-.33.09-.31,0-.31.06-.34a24.83,24.83,0,0,0-2.2-13.65,18,18,0,0,0-15-10.11c12.41-10.86,21.14-20.17,27.65-29.43a93.86,93.86,0,0,0,16.73-43c4.46-32.77-14.21-64-15-65.35l-.22-.37-.29-.32s-5.31-8.52-8.31-11.52-9.54-9-9.54-9l-.31,12.86L312.54,29v.39l.05.39c.16,1.3.14,5.24-1.85,7.64s-6.05,3.07-9.1,3.21c-9.58.41-15.27,4.06-18.19,8.59V32.94L280,31.8l-4.22-1.41C249,21.44,219.81,16.9,189.2,16.9c-52.89,0-91.71,13.46-93.34,14l-4.12,1.45L88.4,33.56V54.88A15.61,15.61,0,0,0,82.58,46c-3.76-2.88-8.72-4.28-15.16-4.28-3,0-7.12-.49-9.23-2.81S55.91,32.74,56,31.4l0-.38,0-.43-1.16-16.1L53.82,0s-8.09,10.06-9.07,11.84S37,25.07,37,25.07l-.13.19-.11.2C36,26.8,18.71,58.85,24.58,91.4a94,94,0,0,0,18.58,42.24c6.91,9,16,17.89,28.9,28.2a18.11,18.11,0,0,0-14.58,10.75,24.78,24.78,0,0,0-1.6,13.73l.07.34L56,187l.1.3.11.33a40.41,40.41,0,0,0,13.62,19.71l.28.2c-1.33,5.1-2.51,9.69-3.62,14.05H37.23l-.83,4-1.28,6.14-1.91,9.2L6.06,371.46l-2.89,13.9-1.92,9.26-1.25,6H71.32l1.44.66,1,.47h.08L152.66,438l29.39,13.43,2.11,1,2.09-1,28.64-13.43,78.77-36.17h.09l1-.47,1.52-.7,1.65-.75,29.52.72h.5a62.37,62.37,0,0,0,18.9-2.94A48.65,48.65,0,0,0,366,386.34l4.6-4.41,3.07-3,2-1.91Zm-7.95,4-4.61,4.42a43.65,43.65,0,0,1-17.2,10.14,57.3,57.3,0,0,1-17.38,2.7h-.19l-30.87-.75-2.7,1.24-1.52.71h-.08l-79.81,36.64-28.63,13.43-29.38-13.43L74.94,396.77h-.08l-1.52-.71-.93-.42H6.15l1.92-9.27L11,372.48l27.15-130.6,1.9-9.19,1.28-6.13h29.1q2.69-10.63,5.47-21.26a30.45,30.45,0,0,1-3-2A35.52,35.52,0,0,1,61,186l-.11-.33-.06-.33a19.73,19.73,0,0,1,1.29-10.8,13.17,13.17,0,0,1,12.22-7.85,14,14,0,0,1,10.4,4.7q.66-2.53,1.31-5.07c-.35-.29-.7-.57-1.08-.86-17.88-13.41-29.54-24.17-37.81-34.9A89.09,89.09,0,0,1,29.5,90.51C23.94,59.68,40.43,29.14,41.14,27.86l8.74-13L51,31c0,.07-.62,6.87,3.45,11.36,2.68,2.95,7,4.45,12.93,4.45,5.3,0,9.27,1.07,12.13,3.25a10.73,10.73,0,0,1,4.29,8.68c0,2.78-1.14,6.49-3.51,8.44a9.59,9.59,0,0,0,.6,1.2c1.54,2.62,3.81,3.84,7.14,3.84A24.86,24.86,0,0,0,97.18,70l2-.81V63.27l-4-4L93.4,57.49V37.1l4.12-1.45c1.59-.56,39.63-13.75,91.68-13.75,30.07,0,58.68,4.45,85,13.23l4.22,1.41V56.78l-1.52,1.74-5.21,5.95v5.21l1.42.51A26.18,26.18,0,0,0,281.71,72c3.51,0,5.85-1.2,7.37-3.78a10.92,10.92,0,0,0,.76-1.59C287.3,64.69,286,60.88,286,58s.91-11.73,15.89-12.38c5.9-.25,10.18-1.94,12.73-5,3.81-4.59,3-11.23,3-11.48l.35-14.33,9.4,10.8c.76,1.25,18.56,31.05,14.34,62.09a89,89,0,0,1-15.87,40.8c-7.75,11-18.86,22.2-36,36.26.47,1.6.93,3.21,1.4,4.81a14,14,0,0,1,9.59-3.82,13.06,13.06,0,0,1,11.94,7.33,19.78,19.78,0,0,1,1.76,10.73l-.05.34-.09.33c-2.43,8.5-7.23,15.27-13.4,19.5q3.1,11.48,5.9,23.05l11.29,0h.31c6.43.27,12.16.27,14.92.27h6.4l1.17,6.29,1.82,9.79.84,4,.23,1.08,5,24.25,2.89,13.9,1.93,9.26h-.09c.31,1.2.59,2.45.86,3.77L361,331.25,368,365l1.3,6.24.87,4.17Z"/><path class="cls-1" d="M315.47,66.69a11.58,11.58,0,0,0-2.2-2.64c-.74,9.76-2.83,17-6.34,22.19a18.36,18.36,0,0,1-15.67,8.44c-7.76,0-15.27-4.21-19.55-7.13v1.08l-.65,1.3-.89,1.77c3.6,16.16,7.9,32.22,12.45,48.26,7.21-6,15.85-14.83,26.4-34.7C321.56,81.63,317.71,70.42,315.47,66.69Zm-30.24,64.09c-3.67-13.24-6.54-24.38-9-34.84a35.28,35.28,0,0,0,15,3.74,23.33,23.33,0,0,0,19-9.47,88.6,88.6,0,0,1-5.63,12.71C297.16,117,290.76,125.18,285.23,130.78Z"/><path class="cls-1" d="M163.08,420.68l20.07,17.91,21.44-18.06,5.91-5-52.93.2Zm33.66-.07L183.24,432l-12.61-11.26Z"/><path class="cls-1" d="M299.45,198.54l.08-.07-.09.07Z"/><path class="cls-1" d="M314,58.09a15.5,15.5,0,0,1,3,2.15A15.5,15.5,0,0,0,314,58.09Z"/><polygon class="cls-1" points="291.77 60.42 291.76 60.41 291.77 60.43 291.77 60.42"/><path class="cls-1" d="M317,45.78c-.43.38-.89.74-1.37,1.09h0C316.07,46.52,316.53,46.16,317,45.78Z"/><path class="cls-1" d="M284.2,145.5l.77-.62-.77.62Z"/><path class="cls-1" d="M271.71,81h0v0Z"/><path class="cls-1" d="M291.58,89.38h0Z"/><path class="cls-2" d="M262.64,48.68a1199.41,1199.41,0,0,1-152.62,0c-9.93,82.42-38.69,161-54,241.23l128,40.56c25.17-17.83,134.24-36.16,133.81-40.56C309.73,206.57,272.43,129.94,262.64,48.68Z"/><polygon class="cls-3" points="291.75 221.84 281.75 221.84 248.89 43.13 253.21 42.47 291.75 221.84"/><polyline class="cls-3" points="82.89 221.84 92.89 221.84 125.75 43.13"/><g id="copa"><path class="cls-2" d="M274.22,35.13c-26.34-8.78-55-13.23-85-13.23-52,0-90.09,13.19-91.68,13.75L93.4,37.1V57.49l1.81,1.81,4,4V89.36l.88,1.47,4.68,7.79a224.5,224.5,0,0,0,.38,49,195,195,0,0,0,11.2,47.2,143.77,143.77,0,0,0,28.77,47.09l1.85,2,2.71,0,77.45-.48h2.76l1.83-2.07a144.55,144.55,0,0,0,28-48.36,183.67,183.67,0,0,0,9.52-47.16,205.16,205.16,0,0,0-2-48.13l3.89-7.77.65-1.3V64.47l5.21-5.95,1.52-1.74V36.54Zm-2,19.33-6.73,7.69v25l-4.81,9.62s17.32,82.74-33.68,140.47l-77.45.48c-51-54.84-38.48-140.47-38.48-140.47l-5.78-9.62V60.71l-5.77-5.77V41.47s38-13.4,89.63-13.4c25.38,0,54.05,3.24,83.07,12.92Z"/><path class="cls-4" d="M149.6,237.74c-51-54.84-38.48-140.47-38.48-140.47l-5.78-9.62V60.71l-5.77-5.77V41.47s84.67-29.83,172.7-.48V54.46l-6.73,7.69v25l-4.81,9.62s17.32,82.74-33.68,140.47"/><g id="izq"><path class="cls-2" d="M45.77,30.4s-2.4,21.65,21.65,21.65c15.79,0,10.54,11.12,9.28,11.12a.17.17,0,0,1-.14-.05,17.34,17.34,0,0,0-12.65-5.64c-13.51,0-26.17,16.87-5.63,51.82C85.7,156,101.1,142.49,109.19,170.66c5.63,21.34-6.26,33.22-19.31,33.22-9.43,0-19.46-6.21-23.9-19.54a14.47,14.47,0,0,1,1-7.69A7.88,7.88,0,0,1,74.3,172c3.88,0,7.93,2.61,9,8.5,0,0,1.92,4.81-3.85,4.81,0,0,0,7.69,8.66,7.69,12.51,0,19.24-17.32,0-31.75C55.88,137.08,40,118.92,34.71,89.57S45.77,30.4,45.77,30.4m4.11-15.56-8.74,13c-.71,1.28-17.2,31.82-11.64,62.65a89.09,89.09,0,0,0,17.62,40.07c8.27,10.73,19.93,21.49,37.81,34.9,9.11,6.83,10.88,13.66,9.51,17.77a6.38,6.38,0,0,1-6.33,4.46,8,8,0,0,1-1.19-.08,7.55,7.55,0,0,0,.59-.77,9,9,0,0,0,.91-7.72c-1.74-8.58-8.3-12.43-14.12-12.43a13.17,13.17,0,0,0-12.22,7.85,19.73,19.73,0,0,0-1.29,10.8l.06.33L61,186a35.52,35.52,0,0,0,11.9,17.3,28,28,0,0,0,17,5.85,25.33,25.33,0,0,0,20.24-9.83c5.81-7.55,7.3-18.22,4.18-30v-.05l0-.06c-4.36-15.19-11.17-20.09-19-25.76-8.29-5.95-18.59-13.36-32.38-36.82s-10.15-34.7-8-38.5a10.24,10.24,0,0,1,9-5.35,12.16,12.16,0,0,1,8.79,4,5.5,5.5,0,0,0,4,1.73c4.87,0,7.14-5.83,7.14-9.77A10.73,10.73,0,0,0,79.55,50c-2.86-2.18-6.83-3.25-12.13-3.25-5.9,0-10.25-1.5-12.93-4.45C50.42,37.82,51,31,51,31L49.88,14.84Z"/><path class="cls-2" d="M64.67,60.4a12,12,0,0,1,9.49,4.16s1.25,12.9,13.91,12.9a29.72,29.72,0,0,0,11.1-2.54v5.71S89,90,79.21,90c-8,0-15.83-6.31-17.56-29.29a13.61,13.61,0,0,1,3-.31m0-5.29h0a18.51,18.51,0,0,0-4.3.47L56,56.66l.33,4.45C58.51,89.36,70,95.29,79.21,95.29c11.54,0,22.35-9.67,23.55-10.78l1.7-1.57V67.06l-7.28,3a24.86,24.86,0,0,1-9.11,2.15c-3.33,0-5.6-1.22-7.14-3.84a12.47,12.47,0,0,1-1.51-4.28l-.16-1.63-1-1.25a17.27,17.27,0,0,0-13.55-6.06Z"/></g><g id="izq-2" data-name="izq"><path class="cls-4" d="M76.56,63.12c-14-14.92-45.7-.49-18.28,46.18s42.82,33.19,50.91,61.36c9.71,36.78-32.63,45.43-43.21,13.68a14.47,14.47,0,0,1,1-7.69c2.89-6.74,14.43-6.74,16.36,3.85,0,0,1.92,4.81-3.85,4.81,0,0,0,7.69,8.66,7.69,12.51,0,19.24-17.32,0-31.75C55.88,137.08,40,118.92,34.71,89.57S45.77,30.4,45.77,30.4s-2.4,21.65,21.65,21.65C83.86,52.05,77.49,64.11,76.56,63.12Z"/><path class="cls-4" d="M74.16,64.56s1.92,19.76,25,10.36v5.71S65.5,111.7,61.65,60.71C61.65,60.71,69.35,58.79,74.16,64.56Z"/></g><g id="drcha"><path class="cls-2" d="M327.29,25.64l-9.4-10.8-.35,14.33c0,.25.85,6.89-3,11.48-2.55,3.07-6.83,4.76-12.73,5-15,.65-16,9.64-15.89,12.38s1.34,6.65,3.88,8.54a10.92,10.92,0,0,1-.76,1.59c-1.52,2.58-3.86,3.78-7.37,3.78a26.18,26.18,0,0,1-8.58-1.76l-7.41-2.65.34,7.86.25,5.7.1,2.31,1.77,1.5c1.18,1,11.88,9.77,23.08,9.77a18.36,18.36,0,0,0,15.67-8.44c3.51-5.15,5.6-12.43,6.34-22.19a11.58,11.58,0,0,1,2.2,2.64c2.24,3.73,6.09,14.94-6.45,38.57-12.76,24-22.73,31.89-30.75,38.2-7.63,6-14.22,11.19-17.92,26.55l0,.06v.06c-2.55,11.68-.73,22.11,5.13,29.39a25.31,25.31,0,0,0,19.84,9.39c13.41,0,24.81-9.58,29-24.4l.09-.33.05-.34a19.78,19.78,0,0,0-1.76-10.73,13.06,13.06,0,0,0-11.94-7.33c-6.08,0-12.76,4-14.18,13.05a9.11,9.11,0,0,0,1.15,7.54,8.09,8.09,0,0,0,.73.88,8.4,8.4,0,0,1-1.19.13h-.35a6.36,6.36,0,0,1-6.23-4.34c-1.44-4,.11-10.89,8.79-18,17.28-14.17,28.47-25.43,36.26-36.5a89,89,0,0,0,15.87-40.8C345.85,56.69,328.05,26.89,327.29,25.64Zm-36,63.75c-9.59,0-19.66-8.52-19.66-8.52l-.25-5.7a31,31,0,0,0,10.36,2.07c8.84,0,12.18-5.82,13.44-9.82a5.5,5.5,0,0,0,2.29-1.58,12.06,12.06,0,0,1,9.08-4.35,10.47,10.47,0,0,1,1.6.13C306.94,83.44,299.27,89.39,291.26,89.39ZM336.39,87c-4,29.54-19.1,48.38-50.25,73.92-18.31,15-11.34,31.73.8,31.73h.58c8.65-.37,8.32-8.06,8.32-8.06h-.42c-5.27,0-3.64-4.65-3.64-4.65.84-6.12,5-8.89,9-8.89A7.86,7.86,0,0,1,308,175.4a14.48,14.48,0,0,1,1.29,7.65c-4,13.95-14.26,20.57-24,20.57-12.69,0-24.39-11.31-19.8-32.37,6.86-28.49,22.83-15.7,48.2-63.51,15.25-28.73,9.65-44.9-.13-49.87l.09-2.81-4.37-.9a18.31,18.31,0,0,0-3.41-.29h0a17.33,17.33,0,0,0-14.1,6.56c-1.26-3.18-1.09-9,10.31-9.48,24-1.05,20.69-22.57,20.69-22.57S340.4,57.47,336.39,87Z"/><g id="drcha-2" data-name="drcha"><path class="cls-4" d="M293.43,62.4c13.29-15.51,45.63-2.46,20.26,45.34s-41.34,35-48.2,63.51c-8.11,37.16,34.56,44,43.76,11.8A14.48,14.48,0,0,0,308,175.4c-3.18-6.6-14.71-6.1-16.18,4.56,0,0-1.71,4.89,4.06,4.64,0,0,.33,7.69-8.32,8.06-12.5.54-20-16.47-1.38-31.72,31.15-25.54,46.23-44.38,50.25-73.92s-13.62-58.64-13.62-58.64S326.11,49.9,302.08,51C285.65,51.66,292.54,63.43,293.43,62.4Z"/><path class="cls-4" d="M295.89,63.73s-1.06,19.83-24.54,11.44l.25,5.7s35,29.59,36.62-21.52C308.22,59.35,300.45,57.76,295.89,63.73Z"/></g></g><path class="cls-5" d="M322.89,28.6s47.3,67.76-31.15,127.78c0,0,30.51-30.13,34.11-50.25,8.41-47.06-11.37-58.66-11.37-58.66S323.35,44.06,322.89,28.6Z"/><path class="cls-5" d="M65.63,72.14S72.22,96,99.28,80.55V74.87S78.24,85,74.16,64.56C74.16,64.56,66.88,64.07,65.63,72.14Z"/><path class="cls-5" d="M304.36,71s-5.68,24.33-32.74,8.87l-.23-4.77s20.7,8.6,24.79-11.83C296.18,63.27,303.11,62.93,304.36,71Z"/><path class="cls-2" d="M296,63.73s7.5.91,8.41,7.5c0,0,3.19-8.18,1.37-13.19C305.73,58,296.86,60.09,296,63.73Z"/><path class="cls-2" d="M74.14,64.64s-7.5.91-8.41,7.5c0,0-3.18-8.18-1.36-13.19C64.37,59,73.24,61,74.14,64.64Z"/><path class="cls-5" d="M282.31,146.72s-28.71,42.34,4.63,45.95c0,0,8.21.77,8.9-8.1a6.5,6.5,0,0,1-3-.53,16,16,0,0,1,1.86-4.42c1.82-2.77,10.42-4.14,9.74,5.18-1.3,17.75-17.52,18.82-17.52,18.82s-8.67,1.21-15.23-5.18c-7.27-7.08-10.58-23.11-1.36-39.56C273,154.19,277.17,150.76,282.31,146.72Z"/><path class="cls-5" d="M91.55,147.4s30,43.88-2.86,45.89c0,0-8.19,1-9.12-7.84a6.61,6.61,0,0,0,2.94-.62,16.26,16.26,0,0,0-2-4.37c-1.9-2.72-10.53-3.84-9.58,5.46,1.8,17.7,18,18.31,18,18.31s8.7,1,15.07-5.6c7.07-7.3,9.93-23.41.24-39.59C101.53,154.43,96.8,151.3,91.55,147.4Z"/><path class="cls-5" d="M45.84,30.53S-.54,97.61,81.66,156.17c0,0-31.35-29.26-35.51-49.27C36.42,60.09,54.71,49,54.71,49S45.16,45.31,45.84,30.53Z"/><path class="cls-6" d="M173,109.35c-.51-.84-1-1.68-1.51-2.53a6.43,6.43,0,0,1-1-2.5c-.11-.93.27-1.39,1.21-1.46a9.93,9.93,0,0,1,3,.43c.15,0,.45.15.43.06s.2-.47,0-.69c-1.15-1.24-2-2.76-3.31-3.8a1.27,1.27,0,0,1-.49-1.51c.48-3.08,1-6.15,1.35-9.24a35.38,35.38,0,0,0,.26-7,23.53,23.53,0,0,0-.62-4.19.85.85,0,0,1,.11-.79,4.7,4.7,0,0,1,1.71-1.69,86.22,86.22,0,0,0,12-8,.51.51,0,0,1,.77,0q3.51,2.72,7.18,5.2a37.91,37.91,0,0,0,4.13,2.19,6.27,6.27,0,0,1,2.84,2.5c.08.15.18.28.1.46a13.25,13.25,0,0,0-.77,5.44,55.61,55.61,0,0,0,1.84,15.4,1,1,0,0,1-.17.9,40.52,40.52,0,0,1-3.82,4.65c-.05,0-.12,0-.08.1a.41.41,0,0,0,.15,0,10.25,10.25,0,0,1,2.7-.46,3.17,3.17,0,0,1,1.29.34,1,1,0,0,1,.54,1.27,11.87,11.87,0,0,1-1.91,4,8.33,8.33,0,0,0-.92,1.48.27.27,0,0,0,.37-.07,16.55,16.55,0,0,0,3.81-4.4s.07-.1.1-.16c.16-.35.43-.24.68-.13s.07.35,0,.5a37.45,37.45,0,0,1-3.66,6.54l-.36.57c.31.17.42-.09.56-.24a53.12,53.12,0,0,0,5.68-7.43,2.56,2.56,0,0,1,1.93-1.36c.16,0,.35-.06.45.1s-.05.26-.11.38c-1.24,2.44-2.49,4.86-3.64,7.34a3.6,3.6,0,0,1-2.15,2,7.22,7.22,0,0,0-2.31,1.49c-4,3.22-7.82,6.53-11.57,10.11a6.53,6.53,0,0,1,.67-3.54,17,17,0,0,1,4.49-5.79s.12-.1.11-.11-.13-.08-.21,0a9.43,9.43,0,0,0-4.39,2.23A22.42,22.42,0,0,0,188,120a8.3,8.3,0,0,1,2.08-4.27,26.48,26.48,0,0,1,3.53-3.22c-1.28,0-2.24.65-3.36,1.16a2.16,2.16,0,0,1,.58-.89,58.14,58.14,0,0,1,5.86-6c.13-.12.45-.24.3-.45s-.43,0-.6.1a6.63,6.63,0,0,1-2,1c-.51.17-.47-.06-.43-.38a6.07,6.07,0,0,1,1.47-3.23c1.15-1.32,2.27-2.67,3.48-3.92A3.89,3.89,0,0,0,200,96.1c-.82-3.64-.73-7.34-.83-11a10,10,0,0,0-.11-1.72c-.06.66-.13,1.32-.17,2a43.17,43.17,0,0,0,.15,8.43,9.61,9.61,0,0,1,.14,2.57,2.9,2.9,0,0,1-1,2,12.89,12.89,0,0,0-4.56,5.5,13.48,13.48,0,0,1-.75-2.07.58.58,0,0,1,.11-.52c1.27-2.14,2.61-4.24,4.8-5.59A.56.56,0,0,0,198,95c-.09-1.4-.16-2.79-.25-4.19a1.28,1.28,0,0,1,.22-.8c.74-1.1,1-2.21-.23-3.08-.21-.15-.13-.37-.13-.57,0-3-.12-6-.12-9a2.76,2.76,0,0,0-1-2.17,5,5,0,0,0-2.11-1.31,9.47,9.47,0,0,1,2.06,5.34,29.74,29.74,0,0,1-4.54-3.19c-1.6-1.32-3.15-2.69-4.7-4.08-.66-.59-.79-.57-1.45,0-2.21,1.92-4.44,3.83-6.66,5.75a3.43,3.43,0,0,1-1.17.67,2.76,2.76,0,0,0-1.19.69,8.2,8.2,0,0,1,1-3.48c.22-.43.5-.84.75-1.26.07-.11.21-.21.13-.32s-.25-.13-.39-.11a1.67,1.67,0,0,0-.86.45q-.42.41-.81.84a3.31,3.31,0,0,0-.89,2.46c.07,2.77,0,5.55,0,8.32a1.26,1.26,0,0,1-.33.94,2.19,2.19,0,0,0-.09,3.07,1.35,1.35,0,0,1,.27,1c-.13,1.41-.24,2.83-.38,4.24a.58.58,0,0,0,.29.64,15.6,15.6,0,0,1,4,4.06,3.36,3.36,0,0,1,.18,4,9.7,9.7,0,0,0-2.55-3.88c-.56-.48-1.11-1-1.7-1.42a3.6,3.6,0,0,1-1.32-3.74,30.11,30.11,0,0,0,.52-6.56,37.82,37.82,0,0,0-.55-6c0-.09,0-.21-.13-.25a1.26,1.26,0,0,0,0,.72,74.18,74.18,0,0,1-.05,9.43,32.82,32.82,0,0,1-.74,4.36,3.37,3.37,0,0,0,1,3.16c1.2,1.32,2.46,2.6,3.57,4a9.52,9.52,0,0,1,1.47,2.57,1.9,1.9,0,0,1,.07,1.06c-1.2-.42-2.12-1.49-3.51-1.45a61.94,61.94,0,0,1,6.88,7.43,18.16,18.16,0,0,0-2.3-1,1.66,1.66,0,0,0-.35-.13c-.24,0-.56-.28-.72,0s.25.42.44.54a13.83,13.83,0,0,1,5.08,5.82,2.56,2.56,0,0,1,.26.85c-.31-.11-.4-.37-.54-.57a9.11,9.11,0,0,0-5.1-3.58,2,2,0,0,0-.54-.11c-.25,0-.6-.24-.74.18s.24.46.44.63a13.44,13.44,0,0,1,4.22,5.12,10.37,10.37,0,0,1,.79,3.77c-.67-.62-1.22-1.11-1.76-1.62-2.27-2.17-4.56-4.33-7-6.32a27.79,27.79,0,0,0-5.88-4.21,3.13,3.13,0,0,1-1.65-1.65c-1.12-2.3-2.29-4.58-3.46-6.86-.18-.36,0-.38.26-.41a2.11,2.11,0,0,1,2.1,1.23,32.93,32.93,0,0,0,5.73,7.51c.07.14.14.3.34.33a.39.39,0,0,0-.19-.52,16.46,16.46,0,0,0-1.28-2.09,31.5,31.5,0,0,1-2.32-4.74c-.07-.17-.2-.33.06-.45s.36-.05.5.17a24.34,24.34,0,0,0,3.89,4.34l.16.14c.05.07.13.1.17,0s0-.18-.09-.22A.12.12,0,0,0,173,109.35Zm26.8.9a1.61,1.61,0,0,0,.24-.31c0-.09,0-.15-.12-.1a.59.59,0,0,0-.19.22S199.76,110.15,199.79,110.25Z"/><path class="cls-6" d="M160,98.08c.2,0,.2.14.24.23A135.16,135.16,0,0,0,172,121.38s0,.07,0,.14c-.4,0-.57-.43-.88-.6a47.49,47.49,0,0,0-4.17-2.36c-.36-.14-.43-.59-.58-.92-1.67-3.58-3.33-7.18-5-10.77-.47-1-.92-2.06-1.39-3.09-.07-.15-.08-.42-.34-.33s-.12.27-.1.43a29.66,29.66,0,0,0,.71,3.37c.05.21.09.43.13.62-.9.12-1.15-.45-1.42-1.1-.49-1.15-1-2.28-1.58-3.4a.71.71,0,0,1,.15-1c1.14-.85,1.48-2.18,2.07-3.36C159.76,98.73,159.88,98.39,160,98.08Z"/><path class="cls-6" d="M212.75,108a23.68,23.68,0,0,0,.83-4.63c-.29.08-.3.26-.37.4q-3.36,7.07-6.72,14.13a2.13,2.13,0,0,1-1,1,27.12,27.12,0,0,0-4,2.47c-.14.12-.27.25-.48.22s0-.19,0-.28c2.81-3.86,4.8-8.17,6.9-12.42a94.46,94.46,0,0,0,4.86-10.64c0-.13.07-.31.24-.32s.23.21.27.36a18,18,0,0,0,.81,2.45,3.21,3.21,0,0,0,1.34,1.77c.34.2.43.43.23.86-.53,1.16-1,2.35-1.45,3.53C213.91,107.85,213.91,107.85,212.75,108Z"/><path class="cls-6" d="M192,101c.09,1.24.17,2.49.26,3.73a.36.36,0,0,1-.13.38c-.85.61-1.68,1.24-2.53,1.84a9.21,9.21,0,0,1-2.74,1.21c-.08,0-.15.1-.23,0-.72-.63-1.72-.6-2.52-1.07a22.39,22.39,0,0,1-2.17-1.41c-.1-.07-.18-.22-.28-.22-.85-.06-.64-.66-.63-1.17,0-1,.07-2,.08-2.95,0-.36,0-.48.44-.3s.81.45.7,1a.57.57,0,0,0,.2.54c.94.83,1.87,1.67,2.78,2.53a1.42,1.42,0,0,0,1,.34,3.23,3.23,0,0,0,2.91-1.34,13,13,0,0,1,1.38-1.4,1.24,1.24,0,0,0,.5-1c0-.58.61-.5.86-.82Z"/><path class="cls-6" d="M165.09,103.18a3.19,3.19,0,0,0-1.8-.64c-.24,0-.32-.15-.38-.33-.77-2.12-1.54-4.23-2.26-6.37C163.17,97.58,163.72,100.51,165.09,103.18Z"/><path class="cls-6" d="M208.22,103c1.17-2.69,1.93-5.46,4.35-7.33a.68.68,0,0,1-.08.58c-.73,1.91-1.48,3.81-2.21,5.73a.86.86,0,0,1-.82.67A7.79,7.79,0,0,0,208.22,103Z"/><path class="cls-6" d="M213.54,80.69a3.14,3.14,0,0,1,2.22,1c.12.15.23.26.09.47-.35.51-.68,1-1,1.54-.15.23-.29.34-.58.14a2.85,2.85,0,0,0-1.53-.6c-.24,0-.26-.14-.22-.33.15-.64.3-1.28.43-1.92C213,80.61,213.23,80.68,213.54,80.69Z"/><path class="cls-6" d="M167.41,101.21c-.78-.16-1.33-.77-2.1-.88-.22,0-.25-.14-.19-.34.17-.63.34-1.26.48-1.9.06-.31.18-.3.41-.18.59.29,1.19.56,1.78.84.14.07.34.12.26.34A21.05,21.05,0,0,1,167.41,101.21Z"/><path class="cls-6" d="M211.81,90.76c.06.18-.07.25-.19.33-.56.35-1.12.69-1.66,1.06-.23.16-.38.2-.47-.12-.19-.67-.38-1.33-.55-2-.06-.22.12-.28.27-.35l1.73-.93c.16-.08.35-.2.42.09C211.52,89.49,211.66,90.12,211.81,90.76Z"/><path class="cls-6" d="M207.27,97.94a12.94,12.94,0,0,1,.67,2c.05.17.15.37-.13.43a7.38,7.38,0,0,0-1.62.73c-.35.17-.46.07-.56-.25-.14-.51-.3-1-.47-1.52-.08-.24,0-.33.2-.42Z"/><path class="cls-6" d="M209.07,93.6c.12,0,.17.1.2.19.18.59.35,1.17.54,1.76.06.19-.05.24-.2.31-.56.24-1.13.46-1.67.75-.27.15-.36,0-.44-.16-.18-.5-.35-1-.52-1.5-.06-.16,0-.3.11-.37l1.86-.94Z"/><path class="cls-6" d="M160.44,83.16a1.26,1.26,0,0,0-1,.15.71.71,0,0,1-1.11-.34c-.18-.33-.36-.67-.8-.77s-.24-.31-.07-.54A3.13,3.13,0,0,1,160,80.8c.11,0,.19.06.2.19a17.05,17.05,0,0,0,.49,1.83C160.78,83.06,160.77,83.24,160.44,83.16Z"/><path class="cls-6" d="M163.6,92c-.49-.32-.93-.81-1.45-.91-1-.19-.69-.79-.59-1.36.23-1.27.23-1.27,1.36-.68s1.2.64,1,2A2.68,2.68,0,0,1,163.6,92Z"/><path class="cls-6" d="M164.13,93.57a10.83,10.83,0,0,1,2,1c.14.1,0,.31,0,.47a5.89,5.89,0,0,0-.32.92c-.11.62-.43.57-.87.35s-.81-.65-1.4-.5c-.15,0-.23-.11-.16-.24a8.67,8.67,0,0,0,.57-1.79C163.94,93.62,164,93.6,164.13,93.57Z"/><path class="cls-6" d="M211.47,85c-.05-.24.11-.27.29-.25a3.11,3.11,0,0,1,1.86.87c.18.18.17.28-.07.41a13.58,13.58,0,0,0-1.34.76c-.24.15-.37.11-.42-.15C211.68,86.11,211.58,85.57,211.47,85Z"/><path class="cls-6" d="M161.13,86.92a12.29,12.29,0,0,0-1.37-.84c-.47-.21-.27-.39,0-.6a2.88,2.88,0,0,1,.47-.3c.42-.22.94-.54,1.31-.33s-.05.74-.11,1.14A1.47,1.47,0,0,1,161.13,86.92Z"/><path class="cls-2" d="M171.4,110.72c-.51-.85-1-1.68-1.52-2.53a6.68,6.68,0,0,1-1-2.51c-.11-.93.27-1.39,1.21-1.45a9.61,9.61,0,0,1,3,.42c.15,0,.45.16.43.06s.2-.46,0-.68c-1.14-1.24-2-2.77-3.3-3.8a1.28,1.28,0,0,1-.49-1.52c.48-3.07,1-6.14,1.35-9.24a35.35,35.35,0,0,0,.26-7,23.67,23.67,0,0,0-.62-4.19.83.83,0,0,1,.11-.78,4.59,4.59,0,0,1,1.7-1.69,86,86,0,0,0,11.95-8,.52.52,0,0,1,.78,0q3.51,2.7,7.18,5.2a37.83,37.83,0,0,0,4.13,2.18,6.29,6.29,0,0,1,2.84,2.51c.08.15.18.27.1.45a13.47,13.47,0,0,0-.78,5.44,55.91,55.91,0,0,0,1.85,15.4,1,1,0,0,1-.17.9,41.5,41.5,0,0,1-3.82,4.66c-.05,0-.12,0-.08.1s.1,0,.14,0a9.94,9.94,0,0,1,2.71-.47,3,3,0,0,1,1.28.35,1,1,0,0,1,.55,1.26,12,12,0,0,1-1.91,4,8.7,8.7,0,0,0-.92,1.48c.19.12.28,0,.37-.07a16.85,16.85,0,0,0,3.81-4.39c0-.06.07-.11.09-.16.17-.35.44-.24.69-.14s.07.35,0,.5a37.09,37.09,0,0,1-3.66,6.54l-.36.58c.31.16.42-.1.56-.25a53.8,53.8,0,0,0,5.68-7.42,2.57,2.57,0,0,1,1.93-1.37c.16,0,.35-.06.45.1s-.05.27-.11.39c-1.24,2.43-2.49,4.86-3.64,7.33a3.57,3.57,0,0,1-2.15,2,7.58,7.58,0,0,0-2.32,1.5c-4,3.21-7.81,6.53-11.56,10.1a6.44,6.44,0,0,1,.67-3.54,16.92,16.92,0,0,1,4.49-5.78.91.91,0,0,0,.11-.12c0-.09-.13-.07-.21,0a9.48,9.48,0,0,0-4.39,2.23,22.42,22.42,0,0,0-2.37,2.19,8.24,8.24,0,0,1,2.08-4.26,27.24,27.24,0,0,1,3.53-3.23c-1.28,0-2.24.66-3.36,1.17a2,2,0,0,1,.58-.9,59.17,59.17,0,0,1,5.86-6c.13-.12.45-.23.3-.45s-.43,0-.61.1a6.36,6.36,0,0,1-2,1c-.51.17-.47,0-.43-.38a6.11,6.11,0,0,1,1.47-3.23c1.15-1.31,2.26-2.66,3.48-3.92a3.88,3.88,0,0,0,1.08-3.82c-.82-3.63-.73-7.34-.83-11a10,10,0,0,0-.11-1.72c-.06.65-.13,1.31-.17,2a43.87,43.87,0,0,0,.14,8.42,9.24,9.24,0,0,1,.15,2.57,2.92,2.92,0,0,1-1,2,12.87,12.87,0,0,0-4.56,5.5,13.39,13.39,0,0,1-.75-2.06.57.57,0,0,1,.11-.52c1.27-2.15,2.6-4.24,4.8-5.6.26-.16.27-.35.25-.62-.1-1.39-.17-2.79-.25-4.18a1.2,1.2,0,0,1,.22-.8c.73-1.11,1-2.21-.23-3.08-.21-.15-.13-.38-.13-.58,0-3-.12-6-.12-9a2.73,2.73,0,0,0-1-2.16,5,5,0,0,0-2.12-1.31,9.46,9.46,0,0,1,2.07,5.33,29.05,29.05,0,0,1-4.54-3.19c-1.6-1.32-3.16-2.69-4.7-4.07-.67-.6-.79-.58-1.45,0-2.21,1.93-4.44,3.84-6.66,5.75a3.43,3.43,0,0,1-1.17.67,2.76,2.76,0,0,0-1.19.69,8.11,8.11,0,0,1,1-3.47c.22-.44.5-.85.75-1.27.06-.1.2-.2.13-.32a.35.35,0,0,0-.39-.1,1.6,1.6,0,0,0-.86.45c-.28.26-.55.55-.81.84a3.28,3.28,0,0,0-.89,2.45c.07,2.77,0,5.55,0,8.32a1.21,1.21,0,0,1-.32.94,2.22,2.22,0,0,0-.1,3.08,1.24,1.24,0,0,1,.27,1c-.12,1.41-.23,2.82-.37,4.23a.58.58,0,0,0,.29.64,15.6,15.6,0,0,1,4,4.06,3.39,3.39,0,0,1,.18,4,9.74,9.74,0,0,0-2.55-3.89c-.56-.48-1.12-1-1.71-1.42a3.62,3.62,0,0,1-1.32-3.74,30.66,30.66,0,0,0,.53-6.55,37.6,37.6,0,0,0-.55-6c0-.1,0-.21-.14-.26a1.36,1.36,0,0,0,0,.72,72.37,72.37,0,0,1-.06,9.43,29.64,29.64,0,0,1-.74,4.36,3.4,3.4,0,0,0,1,3.16c1.2,1.33,2.46,2.6,3.57,4a9.42,9.42,0,0,1,1.47,2.58,1.88,1.88,0,0,1,.07,1.06c-1.2-.43-2.12-1.49-3.51-1.46a62,62,0,0,1,6.88,7.44,16.93,16.93,0,0,0-2.3-1.06,2.48,2.48,0,0,0-.35-.13c-.24,0-.56-.27-.72.06s.25.41.44.54a13.77,13.77,0,0,1,5.08,5.82,2.73,2.73,0,0,1,.26.85c-.31-.11-.4-.38-.54-.58a9.09,9.09,0,0,0-5.1-3.57,2.1,2.1,0,0,0-.54-.12c-.25,0-.61-.23-.74.18s.23.47.43.63a13.38,13.38,0,0,1,4.23,5.12,10.58,10.58,0,0,1,.79,3.77c-.67-.61-1.22-1.1-1.76-1.62-2.27-2.17-4.56-4.33-7-6.31a27.34,27.34,0,0,0-5.88-4.21,3.17,3.17,0,0,1-1.65-1.65c-1.12-2.31-2.29-4.59-3.46-6.87-.18-.36,0-.38.26-.4a2.07,2.07,0,0,1,2.09,1.22,33.07,33.07,0,0,0,5.73,7.51c.08.14.15.31.35.33a.37.37,0,0,0-.2-.51,16.06,16.06,0,0,0-1.27-2.1,31.57,31.57,0,0,1-2.33-4.74c-.07-.17-.19-.33.07-.45s.36,0,.5.18a25.06,25.06,0,0,0,3.89,4.34l.16.14c.05.06.12.1.17,0s0-.18-.09-.23A.1.1,0,0,0,171.4,110.72Zm26.8.89c.13-.16.21-.22.24-.3s0-.16-.12-.11a.67.67,0,0,0-.19.22S198.16,111.51,198.2,111.61Z"/><path class="cls-2" d="M158.41,99.44c.21,0,.21.14.24.23a136,136,0,0,0,11.8,23.08s0,.07,0,.13c-.4,0-.57-.43-.88-.6a46.17,46.17,0,0,0-4.18-2.35c-.35-.15-.42-.59-.57-.92q-2.51-5.39-5-10.78c-.48-1-.93-2.06-1.39-3.08-.07-.15-.08-.42-.34-.34s-.12.28-.1.43a27.25,27.25,0,0,0,.71,3.37c.05.22.09.43.13.62-.9.13-1.15-.45-1.43-1.09-.48-1.16-1-2.29-1.57-3.41a.69.69,0,0,1,.15-.94c1.14-.86,1.48-2.18,2.07-3.37C158.16,100.1,158.29,99.76,158.41,99.44Z"/><path class="cls-2" d="M211.16,109.36a24.35,24.35,0,0,0,.83-4.62c-.29.07-.3.26-.37.4q-3.36,7.06-6.72,14.13a2.11,2.11,0,0,1-1,1,26.66,26.66,0,0,0-4,2.48c-.14.11-.28.25-.48.22a.21.21,0,0,1,0-.28c2.81-3.86,4.8-8.17,6.9-12.43a94.31,94.31,0,0,0,4.86-10.63c0-.13.07-.31.24-.32s.23.2.26.35a20.67,20.67,0,0,0,.81,2.45,3.26,3.26,0,0,0,1.35,1.78c.34.2.43.43.23.85-.53,1.16-1,2.35-1.46,3.53C212.32,109.22,212.32,109.22,211.16,109.36Z"/><path class="cls-2" d="M193.21,93.62c.5-.29.83-.1,1.08.37a1.55,1.55,0,0,1,.05,1.53,4.28,4.28,0,0,1-.51.77c-.9,1.1-1.42,1.15-2.54.23-.18-.14-.29-.27-.51-.1s-.54.57-.93.57-.42-.53-.83-.62c.81,2.16.11,4.3,0,6.44a1.27,1.27,0,0,1-.53,1c-.66.52-1.27,1.1-1.91,1.65a2,2,0,0,1-2.93.14,15.49,15.49,0,0,1-2.24-2.12c-.48-.54-.37-1.28-.48-1.94a16.23,16.23,0,0,1-.17-3.62,4.42,4.42,0,0,1,.32-1.25c0-.11.1-.25,0-.32a.22.22,0,0,0-.27.09c-.45.58-.9.44-1.37,0-.26-.23-.53-.3-.79,0a1.5,1.5,0,0,1-.34.27c-.9.56-1.19.51-1.88-.31A3.4,3.4,0,0,1,175.6,95a1.73,1.73,0,0,1,.48-1.59c.39-.41.6.27,1,.22a2,2,0,0,0-.84-1.43c-.49-.38-1-.71-1.52-1-1.1-.75-1.2-1.2-.51-2.35a9.11,9.11,0,0,1,1.65-1.91,5.89,5.89,0,0,0,1.23-3.31c-.28.17-.26.46-.34.69a3.3,3.3,0,0,1-.85,1.54c-.25.22-.57.39-.69-.11a5.49,5.49,0,0,1,1.36-5.15c0,.25-.16.38-.27.53a5.54,5.54,0,0,0-.93,4.22c0,.17,0,.41.22.45s.3-.19.39-.33a10.17,10.17,0,0,0,1-3c.07-.27-.06-.79.29-.75s.12.52.13.8a6.43,6.43,0,0,1-.47,2.77c-.23.55-.32,1,.31,1.42a.94.94,0,0,1,.32,1.27c-.2.39-.28,1-1,.79,0-.27.22-.35.34-.52a1,1,0,0,0,0-1.21c-.19-.26-.45-.39-.73-.13a8.41,8.41,0,0,0-2,2.41,1,1,0,0,0,.38,1.55c.58.43,1.21.78,1.78,1.22a2.85,2.85,0,0,1,1.13,2.49c-.3-.29-.51-.5-.74-.7-.4-.36-.61-.31-.82.19a1.64,1.64,0,0,0,.11,1.49,7.8,7.8,0,0,0,.92,1.22c.29.35.56.26.85,0,0,0,0-.08.07-.1.38-.3.43-.51.23-1,0-.07-.07-.15,0-.22s.23,0,.33,0a13.09,13.09,0,0,1,1.21.85c.39.34.67.24,1-.09a3.79,3.79,0,0,1,1.31-1c.15,0,.34-.18.43,0s-.14.21-.25.29a2.62,2.62,0,0,0-1.07,2.06,11.25,11.25,0,0,0,.44,5.24,5.65,5.65,0,0,0,3.28,3,1.48,1.48,0,0,0,1.47-.46c.74-.64,1.48-1.3,2.23-1.93a.81.81,0,0,0,.28-.59,43.53,43.53,0,0,0,.34-5.1,3,3,0,0,0-.94-2c-.1-.11-.32-.19-.21-.38s.34-.06.49,0a2.4,2.4,0,0,1,1.12.94c.31.4.52.3.83,0a6.05,6.05,0,0,1,1.27-.92.77.77,0,0,1,.09.13c.08.3-.57.57,0,.88.92.55,1.08.55,1.64-.06a4.55,4.55,0,0,0,.69-.94,1.51,1.51,0,0,0,.11-1.14c-.21-.69-.58-.79-1.1-.32-.15.13-.23.34-.52.42A3.39,3.39,0,0,1,193.78,92a15.46,15.46,0,0,1,1.45-.92,1.26,1.26,0,0,0,.49-2A9.18,9.18,0,0,0,194,87c-.28-.26-.46-.19-.58.16a.94.94,0,0,0,.17,1c.14.15.27.3.42.45.62.66.61.65,0,1.32a3.3,3.3,0,0,0-.47.79,3.49,3.49,0,0,1-3.33,2.12c-.58,0-1.15,0-1.73,0-.11,0-.26,0-.32.11s.06.23.13.32c.27.35.72.54.76.95a3.78,3.78,0,0,1-2.2-1.69,5,5,0,0,0-.57-.8c-1-1-1.93-.91-2.76.21-.31.41-.39,1-.88,1.26a8.77,8.77,0,0,1,.89-1.58c.09-.09.18-.2.12-.32s-.18-.08-.28-.05a2.3,2.3,0,0,1-1.92-.38,7.13,7.13,0,0,1-2.19-2c-.25-.32-.49-.6-1-.51.45-.36.74-.18,1,.22A6.66,6.66,0,0,0,182,91a1.45,1.45,0,0,0,2.14-.76.37.37,0,0,0-.14-.57c-.23-.14-.44-.3-.66-.45a5.07,5.07,0,0,1-2.28-3.9c0-.32-.1-.64-.14-1,0-.1,0-.22.14-.23a.22.22,0,0,1,.23.17,8.5,8.5,0,0,0,3,3.93,1,1,0,0,0,1.34,0,7.13,7.13,0,0,0,3.05-3.6c.06-.17.08-.45.29-.41s.13.34.11.52c-.29,2-.92,3.72-2.83,4.71-.31.16-.31.35-.17.65.56,1.12,1,1.3,2.16.72a8.38,8.38,0,0,0,2.41-2c.62-.7.94-.76,1.81-.38.18.08.31.25.53.24.11-.19,0-.31-.11-.44-.49-.68-.53-1,0-1.58a.92.92,0,0,0,.15-1.15,6.48,6.48,0,0,1-.31-3.75c0-.14,0-.38.2-.38s.19.22.22.38a9.23,9.23,0,0,0,.73,2.91,8.87,8.87,0,0,0,.75,1.14,4.34,4.34,0,0,0,0-2.57,6.59,6.59,0,0,0-4.53-4.79,17.14,17.14,0,0,0-5.39-1.05,19.5,19.5,0,0,0-2,.17,4.8,4.8,0,0,1,2.16-.38,14.2,14.2,0,0,1,7.15,2,6.21,6.21,0,0,1,3,6c0,.34,0,.82-.31.94s-.55-.36-.74-.62a5.92,5.92,0,0,1-.89-2.12c0-.12,0-.26-.21-.3a4.08,4.08,0,0,0,.2,1.9,4,4,0,0,1,.39,1.28c0,.13.12.19.23.26A7,7,0,0,1,196,88.93a1.38,1.38,0,0,1-.49,2.2c-.35.25-.74.45-1.11.67a2.82,2.82,0,0,0-1.31,1.64c0,.07-.09.15,0,.22S193.16,93.63,193.21,93.62ZM189,96.22l-.11-.1c-.1.07,0,.13,0,.18s.1.2.2.08S189,96.25,189,96.22Zm4.94-6.53A6.05,6.05,0,0,0,192,88.61a.86.86,0,0,0-1,.29,8.09,8.09,0,0,1-1.84,1.71c-.87.57-1.74,1.21-3,.52.4.56.68,1,1,1.38.15.19.21.81.63.18,0,0,.24,0,.35,0a9.11,9.11,0,0,0,2.76-.09,2.88,2.88,0,0,0,2.33-1.69C193.4,90.5,193.66,90.1,193.89,89.69Zm-5.32-3.62c-.29,0-.34.13-.42.24a9.65,9.65,0,0,1-2.54,2.31.87.87,0,0,1-1.1,0A8.79,8.79,0,0,1,181.82,86c-.1-.16-.18-.47-.41-.36s0,.38,0,.57a5.19,5.19,0,0,0,2.32,3.14c.89.57.91.78.2,1.6-.09.11-.2.2-.3.31s-.16.15-.08.25.19.07.26,0a1.81,1.81,0,0,1,2.41-.16s.06,0,.13-.08c-.18-.33-.35-.67-.55-1s-.21-.66.25-.87a4.46,4.46,0,0,0,1.5-1.16A5.13,5.13,0,0,0,188.57,86.07Zm5.57,3.4a.24.24,0,0,0-.2-.29c-.14,0-.13.12-.15.2s0,.26.1.3S194.11,89.63,194.14,89.47Zm-13,6.86.08,0s0,0,0,0l-.08,0Z"/><path class="cls-2" d="M190.38,102.36c.08,1.25.17,2.49.26,3.74a.36.36,0,0,1-.13.38c-.85.6-1.68,1.23-2.53,1.83a9,9,0,0,1-2.74,1.21c-.08,0-.15.1-.23,0-.72-.63-1.72-.59-2.53-1.07a21.62,21.62,0,0,1-2.16-1.41c-.1-.07-.19-.21-.29-.22-.84-.06-.63-.66-.62-1.16,0-1,.07-2,.08-3,0-.36,0-.47.44-.29s.81.44.7,1a.52.52,0,0,0,.2.53c.94.83,1.87,1.67,2.78,2.53a1.37,1.37,0,0,0,1,.35,3.24,3.24,0,0,0,2.91-1.35,13,13,0,0,1,1.38-1.4,1.27,1.27,0,0,0,.5-1c0-.58.61-.49.86-.82Z"/><path class="cls-2" d="M187.7,114a3.18,3.18,0,0,1-2.5,3.11c-.91.18-2.54-1-2.87-2.14a3.76,3.76,0,0,1,1.28-3.91c.89-.67,2.19-.79,3.34.7A4.11,4.11,0,0,1,187.7,114Zm-4.43-.1a5,5,0,0,0,0,.54,2,2,0,0,0,1.4,1.64,1.41,1.41,0,0,0,1.45-.71,2.73,2.73,0,0,0-.41-3.43,1.37,1.37,0,0,0-2.35.64A8.11,8.11,0,0,0,183.27,113.89Z"/><path class="cls-2" d="M163.5,104.54a3.25,3.25,0,0,0-1.81-.63c-.23,0-.31-.16-.37-.34-.77-2.11-1.54-4.22-2.26-6.37C161.58,98.94,162.13,101.87,163.5,104.54Z"/><path class="cls-2" d="M206.63,104.41c1.17-2.69,1.92-5.47,4.35-7.33a.7.7,0,0,1-.08.57c-.73,1.91-1.48,3.82-2.21,5.74a.86.86,0,0,1-.82.66A7.66,7.66,0,0,0,206.63,104.41Z"/><path class="cls-2" d="M212,82.05a3.16,3.16,0,0,1,2.22,1c.11.16.23.26.09.48-.35.5-.68,1-1,1.53-.15.23-.29.34-.58.14a2.83,2.83,0,0,0-1.53-.59c-.24,0-.26-.14-.22-.33.15-.64.3-1.28.42-1.92C211.4,82,211.63,82,212,82.05Z"/><path class="cls-2" d="M165.82,102.58c-.78-.16-1.33-.77-2.1-.88-.22,0-.25-.14-.2-.35.18-.63.35-1.26.48-1.9.07-.31.19-.29.42-.18l1.78.85c.14.06.34.11.26.34C166.21,101.17,166.12,101.93,165.82,102.58Z"/><path class="cls-2" d="M210.22,92.12c.06.19-.07.26-.19.33-.56.35-1.12.69-1.66,1.06-.23.16-.38.2-.47-.12-.19-.66-.38-1.32-.55-2-.06-.21.12-.27.27-.35l1.73-.92c.16-.09.34-.21.42.09C209.93,90.85,210.07,91.49,210.22,92.12Z"/><path class="cls-2" d="M205.68,99.31a11.5,11.5,0,0,1,.66,2c.06.17.16.37-.12.44a7.34,7.34,0,0,0-1.62.72c-.35.18-.47.07-.56-.24-.15-.51-.3-1-.47-1.52-.08-.24,0-.34.2-.43Z"/><path class="cls-2" d="M207.47,95c.13,0,.18.1.21.2.18.58.35,1.17.54,1.75.06.2-.05.25-.2.31-.56.24-1.13.46-1.67.75-.27.15-.36.06-.44-.16-.18-.5-.35-1-.52-1.5a.27.27,0,0,1,.11-.37l1.86-.94Z"/><path class="cls-2" d="M158.84,84.52a1.25,1.25,0,0,0-1,.15.71.71,0,0,1-1.11-.34,1.28,1.28,0,0,0-.8-.77c-.29-.07-.24-.31-.08-.53a3.17,3.17,0,0,1,2.59-.87c.11,0,.18.07.2.19a14.08,14.08,0,0,0,.49,1.83C159.19,84.42,159.17,84.61,158.84,84.52Z"/><path class="cls-2" d="M162,93.36a4.78,4.78,0,0,0-1.44-.9c-1-.2-.69-.8-.59-1.37.23-1.27.23-1.27,1.35-.67s1.21.63,1,2A2.85,2.85,0,0,1,162,93.36Z"/><path class="cls-2" d="M162.54,94.94a10.79,10.79,0,0,1,2,1c.14.11.05.31,0,.47a6.39,6.39,0,0,0-.32.93c-.11.61-.44.56-.87.35s-.81-.65-1.4-.5c-.15,0-.23-.12-.16-.24a8.16,8.16,0,0,0,.56-1.8A.25.25,0,0,1,162.54,94.94Z"/><path class="cls-2" d="M187,96.7a.54.54,0,0,1-.39.58.85.85,0,0,1-.9-.2c-.65-.68-.65-.67-1.37-.13a1.77,1.77,0,0,1-.58.33c-.44.14-.76-.14-.64-.58a14.42,14.42,0,0,1,1.72-3.39.27.27,0,0,1,.47,0A8,8,0,0,1,187,96.7Zm-.28,0a7.82,7.82,0,0,0-1.48-3c-.21-.28-.35,0-.45.16A16.39,16.39,0,0,0,183.58,96c-.14.35-.46.81-.13,1.08s.68-.2,1-.43c.68-.54.7-.55,1.32,0a2.89,2.89,0,0,0,.42.35C186.51,97.24,186.68,97.09,186.72,96.65Z"/><path class="cls-2" d="M209.88,86.39c0-.25.1-.28.29-.26A3.09,3.09,0,0,1,212,87c.18.18.16.28-.08.4a14.67,14.67,0,0,0-1.33.76c-.24.16-.37.12-.43-.15C210.08,87.48,210,86.93,209.88,86.39Z"/><path class="cls-2" d="M159.54,88.28a13.16,13.16,0,0,0-1.37-.83c-.47-.22-.28-.4,0-.6a2.34,2.34,0,0,1,.47-.3c.41-.23.94-.55,1.31-.34s-.05.75-.11,1.14S159.79,88,159.54,88.28Z"/><path class="cls-2" d="M182.05,92.93a23,23,0,0,1-2.36,0,4.35,4.35,0,0,1-3.61-3.07c-.12-.47,0-.73.49-1.11a1.54,1.54,0,0,0,.08,1.86,3.82,3.82,0,0,0,3.72,2.21,6.54,6.54,0,0,0,1.71-.11.28.28,0,0,1,.32.13c.09.1-.06.17-.09.25a1.61,1.61,0,0,1-1.24,1.15C181.21,93.73,181.79,93.53,182.05,92.93Z"/><path class="cls-2" d="M185.08,98.71a1.23,1.23,0,0,1,1,.91,1.08,1.08,0,0,1-1,1c-.45,0-1.07-.49-1.08-.84A1.17,1.17,0,0,1,185.08,98.71Zm0,1.64c.41-.06.79-.2.78-.64A.72.72,0,0,0,185,99a.7.7,0,0,0-.73.69C184.3,100.14,184.66,100.29,185,100.35Z"/><path class="cls-2" d="M185.85,102.39a.74.74,0,0,1-.77.65c-.38,0-.89-.16-.88-.67s.44-.62.82-.66S185.72,102,185.85,102.39Zm-.9.41c.27,0,.57-.06.58-.35s-.24-.45-.53-.45a.48.48,0,0,0-.52.41C184.45,102.73,184.72,102.78,185,102.8Z"/><path class="cls-2" d="M178.71,79a13.17,13.17,0,0,1,4.46-1.43A43,43,0,0,1,178.72,79Z"/><path class="cls-2" d="M176.1,81.15a8,8,0,0,1,2.9-2.36c-1.06.59-1.89,1.68-2.9,2.36Z"/><path class="cls-2" d="M178.72,79l-.11.1-.06,0,.16-.06Z"/><path class="cls-2" d="M178.22,79.2l.05,0,0,0Z"/><path class="cls-2" d="M178.23,79.21l0,0v0Z"/><path class="cls-5" d="M271.39,54s-14.76-4.42-25-4.77c-19.78-.69-49.48-.5-49.48-.5s68.69,13.49,68.64,13.47,6.76-7.74,6.76-7.74Z"/><path class="cls-5" d="M100.41,54.18s14.62-4.63,24.86-5c19.79-.7,49.49-.54,49.49-.54L106.13,62.19c.06,0-6.63-7.33-6.63-7.33Z"/><path class="cls-5" d="M168.4,226.52c-1.71-1.7-35.93-17.5-52.53-100,0,0,11.83,42.29,24.79,61.39,20.79,30.64,38.06,38.91,38.06,38.91l-4.95,6.64-5.37-6.9"/><path class="cls-2" d="M228.65,229.93s22-26.14,26.37-67.75l-18.87,18.64s1.59,28.42-17.73,49.11Z"/><path class="cls-2" d="M234.56,170.36,255,151c.74-2.81,4.58-12.89,0-39.56,0,0-12.5,17.5-23.87,21.37C231.15,132.85,235.92,162,234.56,170.36Z"/><path class="cls-3" d="M243.43,158.09l9.32-8.42a52.14,52.14,0,0,0,1.14-17.5S252.07,147.17,243.43,158.09Z"/><path class="cls-3" d="M243,178.55l7.73-8.19s-7,39.79-22,58.44C228.65,228.8,246.16,200.83,243,178.55Z"/><path class="cls-5" d="M105.34,72.62s81-38.22,160.2.37c9.28,4.52.62.06.62.06s-63.35-54.29-160.82-.43"/><path class="cls-2" d="M153.73,226.56s-31.94-22.32-37.86-100.08c0,0,15.16,80.78,52.49,100.08S153.73,226.56,153.73,226.56Z"/><path id="sombras" class="cls-2" d="M105.3,60.2s82.08-27.74,160.75,2V73.31s-36.75-24-78.9-23.34-84.58,24.1-84.58,24.1V61.34Z"/><path class="cls-2" d="M105.41,87.83S123.15,79,135.2,82.37c0,0-21.83,5.91-24.56,15"/><path class="cls-2" d="M265.94,87.37s-17.74-8.86-29.79-5.45c0,0,21.83,5.91,24.56,15"/></g><path class="cls-7" d="M183.15,438.59l-20.07-17.91-5.51-4.92,52.93-.2-5.91,5Zm174-61.4A36,36,0,0,1,343,385.54a49.82,49.82,0,0,1-15.07,2.34l-32.64-.79-4.32,2h-.07l-81.34,37.35,22.14-18.64h-.06l-94.15.36L158,426.42,76.62,389.07h-.07l-2.46-1.13H15.61l2.88-13.89,27.15-130.6,1.91-9.19h25l245.52.52c6.59.28,12.36.28,15.24.28l1.84,9.87.86,4.12.22,1.08,5.05,24.25,2.88,13.9h-1.59l1.56,3.69a49.93,49.93,0,0,1,2.74,9.34l6.55,31.51,7,33.7,1.3,6.25Zm12.13-6L368,365l-7-33.71-6.56-31.51c-.27-1.32-.55-2.57-.86-3.77h.09l-1.93-9.26-2.89-13.9-5-24.25-.23-1.08-.84-4-1.82-9.79-1.17-6.29h-6.4c-2.76,0-8.49,0-14.92-.27h-.31l-245.51-.52H41.29L40,232.69l-1.9,9.19L11,372.48,8.07,386.37l-1.92,9.27H72.41l.93.42,1.52.71h.08l79.81,36.64,29.38,13.43,28.63-13.43,79.81-36.64h.08l1.52-.71,2.7-1.24,30.87.75h.19a57.3,57.3,0,0,0,17.38-2.7,43.65,43.65,0,0,0,17.2-10.14l4.61-4.42,3.06-2.95Z"/><path class="cls-8" d="M93.31,386.64,103.4,388l18.29,15.44L99.75,389.42l-9.66-2.12s13-12.32,96.12-12.36c73,0,92,12.36,92,12.36l-8.75,1.94-23.62,14.19,18.28-15.36,10.1-1.46a287.17,287.17,0,0,0-40.67-6.29C193.57,376.79,133,375.86,93.31,386.64Z"/><path class="cls-2" d="M360.48,366.52l-7-33.7-6.55-31.51a49.93,49.93,0,0,0-2.74-9.34l-1.56-3.69h1.59l-2.88-13.9-5.05-24.25-.22-1.08-.86-4.12-1.84-9.87c-2.88,0-8.65,0-15.24-.28L72.6,234.26h-25l-1.91,9.19L18.49,374.05l-2.88,13.89H74.09l2.46,1.13h.07L158,426.42l-20.48-18.28h0l94.15-.36h.06l-22.14,18.64,81.34-37.35H291l4.32-2,32.64.79A49.82,49.82,0,0,0,343,385.54a36,36,0,0,0,14.19-8.35l4.6-4.42Z"/><path class="cls-7" d="M183.15,438.59l-20.07-17.91-5.51-4.92,52.93-.2-5.91,5Zm174-61.4A36,36,0,0,1,343,385.54a49.82,49.82,0,0,1-15.07,2.34l-32.64-.79-4.32,2h-.07l-81.34,37.35,22.14-18.64h-.06l-94.15.36L158,426.42,76.62,389.07h-.07l-2.46-1.13H15.61l2.88-13.89,27.15-130.6,1.91-9.19h25l245.52.52c6.59.28,12.36.28,15.24.28l1.84,9.87.86,4.12.22,1.08,5.05,24.25,2.88,13.9h-1.59l1.56,3.69a49.93,49.93,0,0,1,2.74,9.34l6.55,31.51,7,33.7,1.3,6.25Zm12.13-6L368,365l-7-33.71-6.56-31.51c-.27-1.32-.55-2.57-.86-3.77h.09l-1.93-9.26-2.89-13.9-5-24.25-.23-1.08-.84-4-1.82-9.79-1.17-6.29h-6.4c-2.76,0-8.49,0-14.92-.27h-.31l-245.51-.52H41.29L40,232.69l-1.9,9.19L11,372.48,8.07,386.37l-1.92,9.27H72.41l.93.42,1.52.71h.08l79.81,36.64,29.38,13.43,28.63-13.43,79.81-36.64h.08l1.52-.71,2.7-1.24,30.87.75h.19a57.3,57.3,0,0,0,17.38-2.7,43.65,43.65,0,0,0,17.2-10.14l4.61-4.42,3.06-2.95Z"/><g id="letters"><polygon class="cls-9" points="81.11 353.13 91.75 353.13 91.75 371.68 99.92 371.68 99.92 353.13 110.6 353.13 110.6 348.82 81.11 348.82 81.11 353.13"/><path class="cls-9" d="M143.89,349.76a6.29,6.29,0,0,0-3.49-.94H120.74a6.23,6.23,0,0,0-3.48.94,2.7,2.7,0,0,0-1.43,2.29v13.52a2.7,2.7,0,0,0,1.43,2.29,6.23,6.23,0,0,0,3.48.94l19.66-1.93a6.21,6.21,0,0,0,3.49-.94c1-.62,1.43-3.31,1.43-4.21v-9.67A2.73,2.73,0,0,0,143.89,349.76Zm-6.75,12.8L124,364.49V353.13h13.14Z"/><path class="cls-9" d="M178.92,349.76a6.29,6.29,0,0,0-3.49-.94H150.86V365H159v-5.37h5.9l6.88,5.37h8.54l-6.84-5.37h1.92a6.14,6.14,0,0,0,3.49-.95,2.72,2.72,0,0,0,1.43-2.27v-4.31A2.73,2.73,0,0,0,178.92,349.76Zm-6.75,5.51H159v-2.14h13.14Z"/><path class="cls-9" d="M207.2,358.82l-12.2-10h-4.2a6.23,6.23,0,0,0-3.48.94,2.7,2.7,0,0,0-1.43,2.29V365h8.17V355l12.2,10h4.2A6.21,6.21,0,0,0,214,364a2.73,2.73,0,0,0,1.43-2.29v-12.9H207.2Z"/><path class="cls-9" d="M229.09,361h17.65v-6.2H229.09v-1.62h21.32v-4.31H225.83a6.23,6.23,0,0,0-3.48.94,2.7,2.7,0,0,0-1.43,2.29v11.6a2.68,2.68,0,0,0,1.43,2.28,6.15,6.15,0,0,0,3.48.94l24.79,1.93v-4.31l-21.53-1.93Z"/><path class="cls-9" d="M284,349.76a6.23,6.23,0,0,0-3.48-.94H260.86a6.23,6.23,0,0,0-3.48.94,2.7,2.7,0,0,0-1.43,2.29V367.5a2.68,2.68,0,0,0,1.43,2.28,6.15,6.15,0,0,0,3.48.94l19.66,2.89a6.23,6.23,0,0,0,3.48-.94,2.7,2.7,0,0,0,1.43-2.29V352.05A2.7,2.7,0,0,0,284,349.76Zm-6.74,19.54-13.14-2.89V353.13h13.14Z"/><polygon class="cls-10" points="81.11 353.13 91.75 353.13 91.75 371.68 99.92 371.68 99.92 353.13 110.6 353.13 110.6 348.82 81.11 348.82 81.11 353.13"/><path class="cls-11" d="M143.89,349.76a6.29,6.29,0,0,0-3.49-.94H120.74a6.23,6.23,0,0,0-3.48.94,2.7,2.7,0,0,0-1.43,2.29v13.52a2.7,2.7,0,0,0,1.43,2.29,6.23,6.23,0,0,0,3.48.94l19.66-1.93a6.21,6.21,0,0,0,3.49-.94c1-.62,1.43-3.31,1.43-4.21v-9.67A2.73,2.73,0,0,0,143.89,349.76Zm-6.75,12.8L124,364.49V353.13h13.14Z"/><path class="cls-12" d="M178.92,349.76a6.29,6.29,0,0,0-3.49-.94H150.86V365H159v-5.37h5.9l6.88,5.37h8.54l-6.84-5.37h1.92a6.14,6.14,0,0,0,3.49-.95,2.72,2.72,0,0,0,1.43-2.27v-4.31A2.73,2.73,0,0,0,178.92,349.76Zm-6.75,5.51H159v-2.14h13.14Z"/><path class="cls-13" d="M207.2,358.82l-12.2-10h-4.2a6.23,6.23,0,0,0-3.48.94,2.7,2.7,0,0,0-1.43,2.29V365h8.17V355l12.2,10h4.2A6.21,6.21,0,0,0,214,364a2.73,2.73,0,0,0,1.43-2.29v-12.9H207.2Z"/><path class="cls-14" d="M229.09,361h17.65v-6.2H229.09v-1.62h21.32v-4.31H225.83a6.23,6.23,0,0,0-3.48.94,2.7,2.7,0,0,0-1.43,2.29v11.6a2.68,2.68,0,0,0,1.43,2.28,6.15,6.15,0,0,0,3.48.94l24.79,1.93v-4.31l-21.53-1.93Z"/><path class="cls-15" d="M284,349.76a6.23,6.23,0,0,0-3.48-.94H260.86a6.23,6.23,0,0,0-3.48.94,2.7,2.7,0,0,0-1.43,2.29V367.5a2.68,2.68,0,0,0,1.43,2.28,6.15,6.15,0,0,0,3.48.94l19.66,2.89a6.23,6.23,0,0,0,3.48-.94,2.7,2.7,0,0,0,1.43-2.29V352.05A2.7,2.7,0,0,0,284,349.76Zm-6.74,19.54-13.14-2.89V353.13h13.14Z"/><path class="cls-8" d="M108.6,350.82v.31H97.92v18.55H93.74V351.13H83.11v-.31H108.6m2-2H81.11v4.31H91.74v18.55h8.18V353.13H110.6v-4.31Z"/><path class="cls-8" d="M140.4,350.82a4.26,4.26,0,0,1,2.39.61c.53.35.53.55.53.62v9.67a7.36,7.36,0,0,1-.64,2.61,4.37,4.37,0,0,1-2.28.54h-.19l-15.37,1.51,12.59-1.85,1.71-.25V351.13H122v15.53l-1.35.14a4.33,4.33,0,0,1-2.3-.61c-.52-.35-.52-.55-.52-.62V352.05c0-.07,0-.27.52-.62a4.26,4.26,0,0,1,2.39-.61H140.4m0-2H120.74a6.23,6.23,0,0,0-3.48.94,2.7,2.7,0,0,0-1.43,2.29v13.52a2.7,2.7,0,0,0,1.43,2.29,6.23,6.23,0,0,0,3.48.94l19.66-1.93a6.21,6.21,0,0,0,3.49-.94c1-.62,1.43-3.31,1.43-4.21v-9.67a2.73,2.73,0,0,0-1.43-2.29,6.29,6.29,0,0,0-3.49-.94ZM124,364.49V353.13h13.14v9.43L124,364.49Z"/><path class="cls-8" d="M175.43,350.82a4.26,4.26,0,0,1,2.39.61c.53.35.53.55.53.62v4.31c0,.21-.34.47-.54.61a4.23,4.23,0,0,1-2.38.61h-7.71l4.55,3.58,2.29,1.79H172.5L166.16,358l-.54-.43H157V363h-4.17V350.82h22.57M157,357.27h17.14v-6.14H157v6.14m18.4-8.45H150.86V365H159v-5.37h5.9l6.88,5.37h8.54l-6.84-5.37h1.92a6.14,6.14,0,0,0,3.49-.95,2.72,2.72,0,0,0,1.43-2.27v-4.31a2.73,2.73,0,0,0-1.43-2.29,6.29,6.29,0,0,0-3.49-.94ZM159,355.27v-2.14h13.14v2.14Z"/><path class="cls-8" d="M213.38,350.82v10.9c0,.07,0,.27-.53.62a4.26,4.26,0,0,1-2.39.61H209.2V350.82h4.18m-19.09,0,11.64,9.55,3.15,2.58H207l-11.65-9.55-3.15-2.58h2.11m-2.23,0V363h-4.17v-10.9c0-.07,0-.27.52-.62a4.26,4.26,0,0,1,2.39-.61h1.26m23.32-2H207.2v10l-12.2-10h-4.2a6.23,6.23,0,0,0-3.48.94,2.7,2.7,0,0,0-1.43,2.29V365h8.17V355l12.2,10h4.2A6.21,6.21,0,0,0,214,364a2.73,2.73,0,0,0,1.43-2.29v-12.9Z"/><path class="cls-8" d="M248.41,350.82v.31H227.09v5.62h17.65V359H227.09v5.44l1.82.16,19.71,1.77v.31L226,364.88h-.16a4.26,4.26,0,0,1-2.39-.61c-.52-.34-.52-.55-.52-.61v-11.6c0-.07,0-.27.52-.62a4.26,4.26,0,0,1,2.39-.61h22.58m2-2H225.83a6.23,6.23,0,0,0-3.48.94,2.7,2.7,0,0,0-1.43,2.29v11.6a2.68,2.68,0,0,0,1.43,2.28,6.15,6.15,0,0,0,3.48.94l24.79,1.93v-4.31l-21.53-1.93V361h17.65v-6.2H229.09v-1.62h21.32v-4.31Z"/><path class="cls-8" d="M280.52,350.82a4.26,4.26,0,0,1,2.39.61c.52.35.52.55.52.62v18.33c0,.07,0,.27-.52.62a4.2,4.2,0,0,1-2.25.61l-1.4-.21V351.13H262.12V368l1.57.34L274,370.63l-12.83-1.89-.14,0h-.15a4.26,4.26,0,0,1-2.39-.61c-.52-.35-.52-.55-.52-.61V352.05c0-.07,0-.27.52-.62a4.26,4.26,0,0,1,2.39-.61h19.66m0-2H260.86a6.23,6.23,0,0,0-3.48.94,2.7,2.7,0,0,0-1.43,2.29V367.5a2.68,2.68,0,0,0,1.43,2.28,6.15,6.15,0,0,0,3.48.94l19.66,2.89a6.23,6.23,0,0,0,3.48-.94,2.7,2.7,0,0,0,1.43-2.29V352.05a2.7,2.7,0,0,0-1.43-2.29,6.23,6.23,0,0,0-3.48-.94Zm-3.26,20.48-13.14-2.89V353.13h13.14V369.3Z"/><path class="cls-16" d="M215.46,397.76a9.18,9.18,0,0,1-.72-.82l-2.62-3c-.06-.07-.16-.14-.17-.24v0l.27-.06a4,4,0,0,0,2.76-1.93,4.39,4.39,0,0,0,.33-3.59,3.75,3.75,0,0,0-2.15-2.35,6.33,6.33,0,0,0-2.32-.61,2.21,2.21,0,0,0-.63,0,.55.55,0,0,0-.36,0H209l-.15,0a.15.15,0,0,0-.18,0,.81.81,0,0,0-.38,0h-.36a.46.46,0,0,0-.26,0c-.14.05-.3-.07-.43.05l-.07,0c-.05-.11-.16-.08-.26-.08h-3.09c-.69,0-.63-.12-.59.41,0,1.14,0,2.27,0,3.41V389a13.45,13.45,0,0,0,0,1.42h0a1.19,1.19,0,0,0,0,.42V391c0,1.59,0,3.18,0,4.77a7.79,7.79,0,0,0,0,1.45l0,.93v.11l0,.13h0s0,.08,0,.11c-.19.26.06.53,0,.79a.3.3,0,0,1,0,.27c0,.07,0,.16.13.15s.17,0,.17-.05,0-.28-.13-.37a.49.49,0,0,0,.21-.44.2.2,0,0,1,.06-.13c.34.06.17-.19.24-.29s0-.1,0-.15l.09-.06s0,0,0,0-.07.24.13.21a6,6,0,0,1,.85,0l.62,0c0,.12-.07.25.06.36s-.09.12.05.12h.51c.37-.05.34.23.31.36s0,.15.17.16.39-.07.58,0c0,.09-.07.23.07.24s.21-.11.21-.24,0-.31,0-.47a4.88,4.88,0,0,0,0-1,.85.85,0,0,0,0-.32c0-1.11,0-2.21,0-3.32,0-.06,0-.15.06-.19l.46.64,2.17,2.93.31.45a.32.32,0,0,0,.33.07c.09,0,.07-.17,0-.24s-.08-.18,0-.28,0-.07,0-.08h0l0-.13c.06,0,0-.07,0-.11s.11-.2.17-.3,0-.14.12-.13.07.07.1.12a2.67,2.67,0,0,1,.11,1.12c.1.1.14.1.24,0s-.14-.32.12-.39l.12,0c.05.21-.11.43.1.62a.21.21,0,0,1,0-.08.21.21,0,0,0,0,.08h0c-.12.06-.09.15-.05.22s.12,0,.18,0a.25.25,0,0,0,.19,0l.09,0-.09,0,.12.19c-.2.08,0,.19,0,.29s.09,0,.15,0,.12-.12.12-.21c0-.29,0-.58,0-.87V398h0l.06,0c.11,0,.23,0,.19-.13l.07,0c0,.1,0,.13.11.1s.09,0,.12,0l.49,0v.37a.82.82,0,0,0,0,.44c0,.08,0,.21.13.19s.1-.14.07-.23,0-.29.22-.3.46.05.38.34c0,.05,0,.07.1.07s.13,0,.13-.08,0-.25,0-.38l.24,0,.05,0v.09c-.08.17.08.14.18.15s.09,0,.1-.06,0-.38,0-.57l.11,0c.07,0,.13.06.2,0Zm-2.76-5.56a.13.13,0,0,0,0,.11h0A.13.13,0,0,1,212.7,392.2ZM203.91,397a.1.1,0,0,0,0,.05h0A.1.1,0,0,1,203.91,397Zm.17.63c-.15,0-.15.18-.3.16a.19.19,0,0,1,0-.08.19.19,0,0,0,0,.08c.15,0,.15-.18.3-.16s0-.06,0-.07S204.09,397.62,204.08,397.66Zm.56-2.42h0l0-.11Zm.93.87c0,.07-.08.14-.11.21s.08-.14.11-.21l.07-.08Zm.19.91v-.27h0Zm.59-3.44h0s0,0,0,0S206.34,393.57,206.35,393.58Zm-.16,1.88Zm.32.75h-.2s0,.06-.08,0,0,0,0,0h.27s0,0,0,0S206.51,396.23,206.51,396.21Zm.12,2v.1a.08.08,0,0,1-.05-.09s0,0,.05,0l0,0,0,0h0l.06,0Zm.18-5h0s0,0,0,0S206.82,393.2,206.81,393.19Zm0-.2v0h0Zm.27-.34-.06.13.13.18-.13-.18Zm.11,5.29L207,398l.23-.06.07-.06Zm.1,0h0l0,.06Zm.35-4.45h0s0,0,0,.05S207.68,393.51,207.68,393.49Zm1.75.17a.88.88,0,0,1-.51,0,.88.88,0,0,0,.51,0Zm0,0h0a.14.14,0,0,0,.16.1A.14.14,0,0,1,209.44,393.67Zm0-1.32h0Zm.58.83-.24,0,.24,0,.07,0Zm-.31-1.77a6.67,6.67,0,0,1-2,.2c-.19,0-.15-.11-.15-.2v-1.62h0c0-.53,0-1.05,0-1.57,0-.17,0-.24.25-.24a6.76,6.76,0,0,1,1.9.21,1.66,1.66,0,0,1,0,3.22Zm1.23,0a.19.19,0,0,0-.1,0,.19.19,0,0,1,.1,0l.15,0Zm2.15,6.23-.05,0,.05,0Zm.62,0h0s0,0,0,0h0c0-.05.19-.09.07-.14C213.89,397.53,213.73,397.57,213.74,397.63Z"/><path class="cls-16" d="M155.53,393.69a4.08,4.08,0,0,0,3.34-2.53,4.46,4.46,0,0,0-.06-3.42,3.45,3.45,0,0,0-1.64-1.78,6.47,6.47,0,0,0-2.92-.84c-1.15-.1-2.3,0-3.45-.05s-2.41,0-3.62,0c-.26,0-.33,0-.33.27,0,1.14,0,2.28,0,3.42q0,4,0,7.95a.08.08,0,0,0,0,.11v.65a2.94,2.94,0,0,0,.08,1.14c-.18.32-.06.67-.08,1,0,.08.11.08.18.08a.15.15,0,0,0,.17-.13c0-.1,0-.21,0-.32s-.22-.49.25-.54c0,0,0-.08,0-.13s0-.18.2-.18a3.38,3.38,0,0,0,.45,0h.56c.2.05.42,0,.61.06,0,0,0,.06.05.08l.08,0-.08,0-.08.31c0,.16.13.11.22.05h.63c.07.05.07.13.08.21s-.2.32.17.26h.55a.86.86,0,0,1,0,.16c0,.11.08.14.17.15s.14-.08.13-.16a.76.76,0,0,0,0-.16c.05,0,0-.1,0-.16a6.42,6.42,0,0,0,0-.76v-.54c0-.34,0-.68,0-1v-.64c0-.06.12-.13,0-.18,0-.23-.13-.45,0-.68,0-.05-.09-.08-.14-.12a.53.53,0,0,0,.15-.5c0-.12,0-.24-.12-.32.19-.06,0-.25.17-.33l.12.12c0,.11.07.17.16.23l0,0c.06,0,.17.08.17.13,0,.36.39.53.55.82.05.1.06.28.25.32,0,.08,0,.19.16.21a1,1,0,0,0,.23.4c.25.34.49.68.74,1,.05.07.07.19.22.14H154c-.12.25.12.63.44.7s.14-.07.16-.14-.13-.35-.08-.4c.15-.21,0-.47.19-.65,0,0,0-.06,0-.1s.34-.07.21.18a.29.29,0,0,0,.09.25c0,.09,0,.19.1.26a4.61,4.61,0,0,0-.13.46c0,.11.08.14.17.15a.08.08,0,0,0,.1-.12c-.15-.13,0-.23,0-.35.05,0,.12,0,.18,0l0,.19a.37.37,0,0,1,0,.31.28.28,0,0,0,.29.38c.15.08.09.21.12.31s0,.19.14.16.19-.05.22-.16-.1-.21-.06-.33a.34.34,0,0,0,0-.36c0-.11-.18-.29.12-.33a6.7,6.7,0,0,1,1,.05,1,1,0,0,0,.08.78c-.11-.43.18-.3.39-.29h.09c.12,0,.16,0,.17.14s-.08.23.12.21.1-.16.09-.24.08-.26.29-.21l0,.11c0,.05,0,.1,0,.12s.27,0,.28-.19-.17-.47.28-.43h0l0-.05Zm.83-4.84h0l-.14,0Zm-9.31,8.67h0a.11.11,0,0,1,.09-.06A.11.11,0,0,0,147.05,397.52Zm.24.11h0l.2-.06Zm.75-6.2c-.06-.07-.09,0-.14,0s.08-.11.14,0Zm1,6.56h0a.57.57,0,0,0,0,.14A.57.57,0,0,1,149,398Zm0-.39-.14,0,0-.05a.63.63,0,0,0,.11-.15.63.63,0,0,1-.11.15l0,.05Zm.62.63h0v0Zm0-3.15h0a.07.07,0,0,0,0-.06A.07.07,0,0,1,149.65,395.08Zm-.3.1.08,0-.08,0a.1.1,0,0,0,0-.06A.1.1,0,0,1,149.35,395.18Zm0,.72s-.13,0-.08-.07,0-.27.23-.22l.06,0a.41.41,0,0,0,0-.09.41.41,0,0,1,0,.09l.08,0a.67.67,0,0,1-.06.12C149.56,395.86,149.52,396,149.38,395.9Zm.28,2.51h0l.06,0Zm.17-.17h0Zm-.09-2.89a.17.17,0,0,1,.1-.06s0,0,0-.05,0,0,0,.05A.17.17,0,0,0,149.74,395.35Zm.56,3.47a.06.06,0,0,0,0-.05h0A.06.06,0,0,1,150.3,398.82Zm.31-3.84a.18.18,0,0,0-.08-.11.18.18,0,0,1,.08.11Zm1.63-.14h0s0,0,0,0S152.25,394.85,152.24,394.84Zm.8-1.17H153c-.06,0-.19,0-.19-.08s.24-.09.35-.17c-.11.07-.24.13-.07.25s.13,0,.13,0S153.14,393.66,153,393.67Zm.77,3.46-.08,0,.08,0a.36.36,0,0,1,.07-.1A.36.36,0,0,0,153.81,397.13Zm.49.36h0l0,0Zm-.92-6.09a6.56,6.56,0,0,1-2,.21c-.19,0-.15-.11-.15-.2,0-.54,0-1.07,0-1.6h0c0-.53,0-1.06,0-1.59,0-.17,0-.24.25-.24a6.62,6.62,0,0,1,1.93.22,1.65,1.65,0,0,1,0,3.2Zm1.13,5.62a.12.12,0,0,1,0,.08.12.12,0,0,0,0-.08.19.19,0,0,1,.11-.07A.19.19,0,0,0,154.51,397Zm.12-.48-.06-.17.1-.15-.1.15Zm.18-.76-.11.05.11-.05a.07.07,0,0,1,.05,0A.07.07,0,0,0,154.81,395.78Zm.31-.1v0h0a.7.7,0,0,1,.14.16A.7.7,0,0,0,155.12,395.68Zm.92,1.63h0l0,0h0l0,0c0,.11.07.15.13.16S156.06,397.42,156,397.31Zm.1-.49h0l.16-.11c.08.07.11.18.22.24C156.39,396.93,156.21,397,156.14,396.82Zm.66.09a.1.1,0,0,0,0-.07.1.1,0,0,1,0,.07.12.12,0,0,0,.09,0A.12.12,0,0,1,156.8,396.91Zm.62,1s.07,0,.06-.08v0S157.46,397.9,157.42,397.91Zm.11-.48h0Zm.15.09v0h0Z"/><path class="cls-16" d="M192.42,385.13a6.12,6.12,0,0,0-1.21,0l-.1,0h-4.4c-.06,0-.12-.07-.19,0h-.31a12.35,12.35,0,0,0-1.49,0,1.61,1.61,0,0,0-.49,0h-.31l-.14,0h0l-.33,0c-.17,0-.21.05-.21.18,0,1.35,0,2.69,0,4a.45.45,0,0,0,0,.28v5.19c0,.57,0,1.14,0,1.71,0,.14.07.16.21.16s.18-.05.17-.16a.61.61,0,0,1,0-.19c0-.07,0-.17.09-.16s.08.1.09.16-.1.38.25.33c.06,0,.1.05.09.09-.07.36.22.29.44.28s.26.06.26.23c0,.33,0,.66,0,1,.25-.17.54,0,.76-.14a1.09,1.09,0,0,1,.42.62c-.16,0-.11.09-.11.16s0,.23,0,.35,0,.38,0,.57,0,.11.09.11.18-.06.16-.09c-.11-.22.18-.2.23-.31a2.24,2.24,0,0,1,.58,0h0a.34.34,0,0,0,0,.26c0,.06,0,.16.11.16s0-.11.07-.16,0-.17,0-.26-.11-.34,0-.51l0-.31.05,0,.12,0c.18.08.09-.07.13-.11a.4.4,0,0,0,0-.38l0-1v0l0,0a.26.26,0,0,0,0-.21v-.11l0-.11c.07-.07,0-.16,0-.23,0-.52,0-1,0-1.56a.26.26,0,0,0,0-.28,1.23,1.23,0,0,1,0-.47.31.31,0,0,0,.19-.06H192c.22,0,.23-.07.23-.22,0-.88,0-1.77,0-2.65,0-.21-.05-.26-.29-.26h-4.12c-.23,0-.31,0-.3-.25q0-1,0-1.92c0-.22.08-.26.31-.26h4.59c.23,0,.3,0,.3-.25,0-1,0-2,0-2.95C192.71,385.15,192.68,385.07,192.42,385.13ZM185.27,396v0Zm0-.06a1,1,0,0,0-.16-.19,1,1,0,0,1,.16.19l.14,0Zm.13-.09,0,0,0,0,0,0Zm0-.38-.06,0,.06,0Zm.17-.06c0-.1.08-.21,0-.31l-.06,0,.06,0h0C185.7,395.24,185.66,395.35,185.62,395.45Zm.44.26h0Zm.13-2.1a.25.25,0,0,1,0-.22h0A.25.25,0,0,0,186.19,393.61Zm0-.38,0-.19,0,.19q.08,0,.09.06S186.22,393.24,186.17,393.23Zm.47,1.34s0,.05,0,.07a.22.22,0,0,0-.12,0,.22.22,0,0,1,.12,0s0,0,0-.07a.22.22,0,0,1,0-.08h0A.22.22,0,0,0,186.64,394.57Zm.28,1.46,0,0,0,0Zm-.22-.14h.07a.17.17,0,0,0,0-.07.17.17,0,0,1,0,.07Zm.21,2.8,0,0,0,0h0Zm.11-1.82h0Zm.18-.52-.08,0,.08,0Zm.18-10.6a.12.12,0,0,0,0,.08.12.12,0,0,1,0-.08.66.66,0,0,0,.14-.32A.66.66,0,0,1,187.38,385.75Zm.32.15a.2.2,0,0,0,.07-.19h0A.2.2,0,0,1,187.7,385.9Zm1-.51h-.07a.26.26,0,0,1,0,.28.26.26,0,0,0,0-.28.12.12,0,0,1-.1-.13.12.12,0,0,0,.1.13h.07l0,.05Z"/><path class="cls-16" d="M145.91,385.1l-5.06,0h-.43a.58.58,0,0,0-.32,0,2.36,2.36,0,0,0-.37,0,13.46,13.46,0,0,0-1.68,0c.13,0,.19.09.21.15s-.08-.11-.21-.15-.05,0-.08,0-.11,0-.16,0h-.74c-.48,0-.48,0-.43.43a7.51,7.51,0,0,0,0,.82v.54c0,.51,0,1,0,1.53q0,3.54,0,7.07a.78.78,0,0,0,.09.34,1.47,1.47,0,0,0-.08.75c0,.14.13.07.21.07s.19,0,.17-.13a1.7,1.7,0,0,0,0-.22c0-.1,0-.16.1-.14s.18,0,.13.16-.14.35.22.33c.16,0,.07.14.12.21s0,.17.11.15.32.05.48,0l.09,0h0a3.39,3.39,0,0,0,0,.78s0,.08,0,.12l0,.16c0,.06-.05.13,0,.19l.27-.12h.36c.36.07.43.15.41.47a1.1,1.1,0,0,0,0,.26v.33l0,.62c0,.08,0,.16.14.16s.12-.06.13-.14c.06-.32.16-.36.57-.37s.14.22.2.33,0,.18.14.18.16-.09.15-.19a4,4,0,0,1,0-.69c0-.15-.15-.43.26-.42.05,0,.1-.05.08-.1-.07-.21.09-.42,0-.63a13.53,13.53,0,0,0,0-1.56V395a4,4,0,0,0,0-.6c0-.21.07-.24.29-.24h4.12c.23,0,.3,0,.3-.25,0-.89,0-1.77,0-2.66,0-.21-.07-.25-.3-.24H141.2c-.22,0-.3,0-.3-.24,0-.64,0-1.27,0-1.9,0-.23.06-.3.34-.3,1.53,0,3.06,0,4.59,0,.13,0,.26,0,.26-.17,0-1,0-2.09,0-3.13C146.08,385.14,146,385.1,145.91,385.1Zm-9.11,10h0l0,0Zm.12,0h0l0,0Zm.06-8.22,0,0,0,0Zm0-1.33h0l.1,0Zm.12.49h0l.1-.24Zm.2.22s-.07,0-.09,0,.06,0,.09,0Zm.43,5.36a.2.2,0,0,1-.05-.09.2.2,0,0,0,.05.09Zm.11.09,0,0,0,0-.11-.09h0l.11.09a.12.12,0,0,0,.1,0A.12.12,0,0,1,137.85,391.7Zm.22-.08h0a.05.05,0,0,0,.05,0,.05.05,0,0,1-.05,0Zm.09,0h0c0,.05,0,.1,0,.16S138.15,391.68,138.16,391.63Zm.27-4.4Zm1.29,5.47h0a.86.86,0,0,1,0,.13A.86.86,0,0,0,139.72,392.7Zm-.4-6.95a.13.13,0,0,1,.09,0,.32.32,0,0,0,.23.13.32.32,0,0,1-.23-.13A.13.13,0,0,0,139.32,385.75Zm.34,12.08a.35.35,0,0,1-.2,0,.35.35,0,0,0,.2,0l.07-.05Zm.26-2.54h0a.71.71,0,0,0,0-.14A.71.71,0,0,1,139.92,395.29Zm.43,2.59h0l.1,0Z"/><path class="cls-16" d="M178.82,396.89c0-.15,0-.19-.21-.18h-1.39l-2.29,0a.12.12,0,0,0-.15,0,1,1,0,0,0-.42,0h-.11l0-.1v-.77c0-.48,0-.95,0-1.43,0-.2.05-.26.29-.25h3.69c.24,0,.33,0,.33-.28,0-.89,0-1.78,0-2.67,0-.21-.06-.26-.29-.25-1.25,0-2.5,0-3.75,0-.2,0-.26,0-.26-.22,0-.71,0-1.42,0-2.13,0-.36,0-.36.42-.36l3.84,0c.22,0,.25-.07.25-.24,0-.91,0-1.83,0-2.74,0-.12,0-.26-.21-.2a.3.3,0,0,0-.21,0h-.17l-.13,0a5.07,5.07,0,0,0-1.23,0h-.15a1.83,1.83,0,0,0-.66,0h-.19v0a8.18,8.18,0,0,0-1,0,10.1,10.1,0,0,0-1.23,0,1.82,1.82,0,0,0-.57,0h-.86l-.55,0a1.78,1.78,0,0,0-.4,0l-.23,0a2,2,0,0,0-.55,0,.2.2,0,0,0-.15,0c-.16,0-.34-.05-.34.21,0,1.73,0,3.45,0,5.17a.16.16,0,0,0,0,.15l0,1.78v0h0c0,.1,0,.2,0,.29,0,1.87,0,3.74,0,5.61a.59.59,0,0,0,0,.35c.08.17,0,.4.18.54-.17.05-.21.19-.16.28s.21.08.31,0,.06,0,.09,0a.27.27,0,0,0,.35,0c.19-.09.22-.15.08-.27h0c0-.06.09-.08.1-.16,0-.43.05-.43.54-.43h.43c.25,0,.1.25.24.32-.07,0-.1.09,0,.15s.06,0,.08,0,0-.1,0-.15c.07-.24.29-.05.43-.12,0-.18.25-.15.29-.29l0-.08c.09.09.16,0,.24,0h.12c.11.12.21-.1.32,0s.11,0,.17,0l.13,0a.37.37,0,0,0,0,.23.19.19,0,0,0,0,.18c0,.11-.15.3.17.28.09,0,.07.06.05.11s-.23.05-.18.17.16,0,.24.06a.57.57,0,0,0,.13,0c.43.06.43.06.54-.29,0-.08.11-.09.16-.14h.28c.12.09.25,0,.37,0l.14,0,.12,0,.05.06c0,.07,0,.19.14.16s.13-.12.11-.21a2.38,2.38,0,0,0-.05-.26c0-.07-.07-.1-.08-.17.23-.1.43-.22.3-.49l.08,0c.2,0,.17.14.19.25s-.06.16.08.16a1.49,1.49,0,0,0,.43-.06c.12,0,0-.16,0-.24a2.75,2.75,0,0,0,0-.5c.18-.13.45-.07.62-.23l.33.07c.29.06.57.13.49.49,0,.07-.06.15.07.16s.11-.08.09-.16C178.82,397.7,178.81,397.29,178.82,396.89Zm-8.59,2.26a0,0,0,0,0,0,0,.17.17,0,0,1-.07-.13.17.17,0,0,0,.07.13A0,0,0,0,1,170.23,399.15Zm.62-7.11c-.06,0-.16,0-.22,0h0C170.69,392,170.79,392.07,170.85,392Zm-.23,0v0h0Zm0,5.45h0a.07.07,0,0,1,0,.06A.07.07,0,0,0,170.64,397.46Zm.18-.22-.25.06.25-.06a.1.1,0,0,1,.05,0A.1.1,0,0,0,170.82,397.24Zm.26,0a.14.14,0,0,1,0,.09.14.14,0,0,0,0-.09.18.18,0,0,0,0-.13A.18.18,0,0,1,171.08,397.21Zm2-8s.05,0,.06-.05h0S173.15,389.21,173.13,389.22Zm-.33-1.09,0,.07h0Zm-.23.53v.08h0Zm-.11.36v0l0,0Zm-.42,1.26.08,0h0Zm.08.13a.16.16,0,0,1,.19,0,.16.16,0,0,0-.19,0Zm-.81,2.92.13,0h0Zm.17-2.92h0l0,0Zm.28,7-.19,0,.19,0Zm.15-5.92,0,0,0,0Zm-.08-.66h0c0-.08,0-.13,0-.14s0,.06,0,.14h0Zm.23,2.06h0a.37.37,0,0,1,.15,0A.37.37,0,0,0,172.06,392.91Zm0,0v-.21h0Zm.14-1.5-.24,0,.24,0c.05,0,.08,0,.08,0s0,0-.08,0a.73.73,0,0,0,.25.08A.73.73,0,0,1,172.2,391.4Zm.18,2.64v0l.14-.08h0l-.14.08v0Zm.17.22h0c0-.08,0-.09.07-.1S172.54,394.18,172.55,394.26Zm.26-.32s0,0-.06,0,0,0,.06,0l.2,0Zm.18,1c-.11,0-.14-.07-.12-.11s0,.07.12.11a.07.07,0,0,1,0,.09A.07.07,0,0,0,173,394.93Zm0-1.94-.07-.08.07.08.13,0Zm.18-.84Zm-.12-3.79h0l.18.05Zm.31.52a.52.52,0,0,0,.17,0,.52.52,0,0,1-.17,0Zm-.07,6.52,0,0,0,0Zm.18-2.49h0l.07,0Zm0-2.2-.12.1.12-.1h0Zm.49,7.7a.08.08,0,0,1,0,0,.08.08,0,0,0,0,0v0h0Z"/><path class="cls-16" d="M168.45,396.7h-4c-.22,0-.28,0-.27-.24,0-.69,0-1.38,0-2.08,0-.21.06-.25.29-.24h3.75c.21,0,.28-.05.27-.24,0-.9,0-1.8,0-2.71,0-.23-.09-.25-.32-.25-1.24,0-2.48,0-3.72,0-.24,0-.3-.06-.28-.26s0-.61,0-.92c0-.07,0-.13,0-.18,0-.36,0-.72,0-1.08,0-.21.05-.28.31-.27h3.94c.21,0,.28,0,.27-.24,0-.77,0-1.55,0-2.32,0-.61,0-.61-.69-.59a2.25,2.25,0,0,0-1,0l-.17,0h-.19c-.13,0-.29-.05-.33.13l-.09-.11a1.51,1.51,0,0,0-.6,0l-.12,0a1.19,1.19,0,0,0-.65,0,3.05,3.05,0,0,0-1,0h-.14a.09.09,0,0,0-.11,0h-.14l-.23,0a.42.42,0,0,0-.27,0l-.1,0a.74.74,0,0,0-.39,0,.92.92,0,0,0-.37,0h-.23c-.08-.06-.18,0-.27,0a.56.56,0,0,0-.36,0c0-.06-.08-.05-.14,0l-.58,0c-.63,0-.64,0-.64.57v10.9c0,.26,0,.26.09.29s.16.18.19.3c-.18.17-.4.33-.25.61l0,0,0,0c-.07.06,0,.14,0,.21v.12l0,.32s0,.08,0,.12l0,.2h0a.26.26,0,0,0,.11.28v.15c-.15.11-.15.27,0,.33a.19.19,0,0,0,.18,0h.07c.07,0,.18,0,.17-.08h0s0,0,0,0h0s0,0,0,0h.1c0,.09.05.06.1.06.29.08.09-.15.17-.2s0-.09,0-.14c0-.5,0-.5.6-.5s.51,0,.56.42c0,.08.09.09.13,0s.06-.24.26-.2.19,0,.2,0c0-.31.43-.13.59-.32s.47-.06.67,0,0,.29.08.44,0,.08,0,.12c-.06.39.13.52.55.38l.19-.08c.06.1.14.07.17,0a1.09,1.09,0,0,0,0-.26h.1c0-.15.16-.17.27-.23s.18-.17.05-.33c.31,0,.6.07.51-.36a.33.33,0,0,0,.53.14c0-.18.11-.15.22-.15s.14.13.14.22-.07.11,0,.16a.35.35,0,0,0,.52-.25,1.21,1.21,0,0,0,0-.19c-.06-.29.07-.46.41-.48l.12,0a1.15,1.15,0,0,1,.8.12c.19.06,0,.26.09.39s0,.14.1.13.08-.08.08-.14c0-.39,0-.78,0-1.16C168.75,396.75,168.68,396.7,168.45,396.7Zm-3.79-3.47.09,0-.09,0a1.57,1.57,0,0,1,0-.23A1.57,1.57,0,0,0,164.66,393.23Zm1.94-8,.45.47-.45-.47c-.06,0-.11,0-.16,0S166.54,385.19,166.6,385.23Zm-1.24.38s.06.05.07.09-.05-.06-.07-.09Zm-.17-.23.1.05-.1-.05,0-.1Zm-.27.17.07.11-.07-.11h0Zm-.06,0h0s0,.05,0,.07S164.85,385.57,164.86,385.55Zm-.11.26h0a.32.32,0,0,0-.17,0A.32.32,0,0,1,164.75,385.81Zm-4.48,5.8,0,0,0,0Zm.56.2,0,0h0v0Zm-.3.82h0v0Zm.17,4.39s-.07,0-.11,0,.08,0,.11,0a.11.11,0,0,0,.08,0A.11.11,0,0,1,160.7,397Zm0-2.18a.14.14,0,0,1,.1-.1h0A.14.14,0,0,0,160.74,394.84Zm.14-1.56h-.1a.06.06,0,0,1,0-.06.06.06,0,0,0,0,.06h.1a.13.13,0,0,1,.05-.07A.13.13,0,0,0,160.88,393.28Zm0-.26,0,.05h0l0-.05.05-.11Zm.19,1.24h0a.06.06,0,0,0,.06,0A.06.06,0,0,1,161.08,394.26Zm.1-9,0,0h0l0-.07,0,.07Zm.09,12.85v0h0Zm.3-9.11h0l-.13-.13Zm-.14,3.54h0l0-.15Zm.1,2.68c.05,0,.09,0,.11-.12l-.09-.1.09.1C161.62,395.23,161.58,395.25,161.53,395.26Zm0-3.43-.13,0,.14,0a.37.37,0,0,0,.14.07A.51.51,0,0,1,161.55,391.83Zm.34-1.2a.18.18,0,0,1-.07-.09.18.18,0,0,0,.07.09Zm.12-2.27a.11.11,0,0,1,0-.05l.08-.06-.08.06A.11.11,0,0,0,162,388.36Zm0,1.46s.09,0,.11.06h0S162.07,389.83,162,389.82Zm.11,2.72Zm.08,2a.25.25,0,0,1-.12-.15.25.25,0,0,0,.12.15Zm.11-1.89v0Zm0-3.91v-.11h0Zm.1,4.13s0,0,0-.05l0,0,0,.05Zm.08.74v0a.11.11,0,0,0,0,.06A.11.11,0,0,1,162.5,393.66Zm.2.13.06.13-.06-.13c.1-.19-.24-.3-.11-.5a.18.18,0,0,0,.17-.05.18.18,0,0,1-.17.05C162.46,393.49,162.8,393.6,162.7,393.79Zm-.09-2.08h0l.28-.13Zm.21-2.56a.11.11,0,0,0,0-.06.11.11,0,0,1,0,.06l.11,0Zm.12-1.12s0,0-.06-.08.05.05.06.08h0Zm.19-2.58h0a.29.29,0,0,1,.15.16A.29.29,0,0,0,163.13,385.45Zm.18-.21,0,0,0,0Zm.32.48h0s-.06,0-.08,0S163.6,385.71,163.63,385.72Zm0,.08h0Z"/><path class="cls-16" d="M200,393.92c-.46,0-.4,0-.4-.34v-6.82a5.14,5.14,0,0,0,0-1.11c-.22-1-.51-2-.76-3,0-.17-.12-.15-.25-.07a4.78,4.78,0,0,0-2.35,3.79c0,.54,0,1.08,0,1.62v.65l.85-.58c.06.45.1.84-.42,1.07a3,3,0,0,0-.29.2.27.27,0,0,0-.11.38l.8-.56a.83.83,0,0,1-.45,1.1c-.08,0-.13.1-.2.14a.3.3,0,0,0-.15.44c.17-.11.32-.23.48-.32s.18-.23.36-.18v.32a.54.54,0,0,1-.35.62c-.12.07-.21.17-.33.24a.31.31,0,0,0-.16.45l.8-.55a.82.82,0,0,1-.49,1.11c-.06,0-.1.09-.16.12a.33.33,0,0,0-.16.45l.71-.48c0,.11.05.2.09.28a.37.37,0,0,1-.08.49,1.83,1.83,0,0,1-1.56.52h-.07c-.12,0-.17,0-.18.15a.9.9,0,0,0,.4,1,6.31,6.31,0,0,1,.62.54l0,.3c0,.35,0,.7,0,1.05a.18.18,0,0,0,0,.25,5.41,5.41,0,0,0,0,.9.3.3,0,0,0,0,.34l0,.17a0,0,0,0,0,0,.05v.23c-.06,0-.06.06,0,.1v.12c0,.09-.05.19.09.19s.18,0,.07-.13l0-.12c.13,0,.25-.06.26-.19s-.06-.11,0-.13a.1.1,0,0,1,.13.06c0,.05,0,.17,0,.17-.21.07,0,.17,0,.21s.14,0,.21-.06.17-.2.29-.12.35.19.35.37c0,.48,0,1,0,1.44,0,.24,0,.48,0,.72a.3.3,0,0,0,.31.28c.14,0,0-.17.06-.27,0-.37-.05-.74,0-1.11a11.37,11.37,0,0,0,0-1.17c0-.39-.09-.79.21-1.14.08-.11.15-.2.31-.17s.1.16.1.25a16.35,16.35,0,0,0,.1,2.22c.35-.11.45-.44.72-.63s.15-.44.16-.67c0-.76,0-1.53,0-2.29a3,3,0,0,1,0-1.13c.13-.35.58-.57.88-.85.07-.07.14-.12.16-.22C200.78,394,200.73,393.92,200,393.92ZM196.34,399l0,0,0,0Z"/><path class="cls-16" d="M224.94,397.29l.06-.05c.21-.09.09-.25.12-.38H225l-.25.1.25-.1h.1c0-.13,0-.16-.18-.16-.5,0-1,0-1.48,0-.24,0-.23.09-.14.22-.08,0-.16,0-.14-.09s0-.12-.11-.12l-1.48,0a.86.86,0,0,0-.45,0h-.24c-.29.06-.37,0-.37-.28,0-.69,0-1.39,0-2.08,0-.17.05-.25.25-.23h1.43s0-.06,0-.08,0,.05,0,.08h2.5s.09,0,.1,0c0-1,0-2.06,0-3.08,0,0,0-.06-.06,0-1.32,0-2.64,0-4,0-.21,0-.26-.05-.26-.23,0-.74,0-1.48,0-2.21,0-.22.05-.27.3-.27h4c.2,0,.26,0,.25-.23,0-.9,0-1.8,0-2.7,0-.23-.08-.33-.35-.24a.9.9,0,0,0-.4,0,12,12,0,0,0-1.34,0,.5.5,0,0,0-.27,0,.7.7,0,0,0-.35,0l-.14,0h-.61a2,2,0,0,0-.6,0h-1.44a3.23,3.23,0,0,0-.76,0,.39.39,0,0,0-.24,0,.11.11,0,0,0-.14,0l-.24,0a.65.65,0,0,0-.31,0,.87.87,0,0,0-.36,0h-1.06c-.06,0-.14-.06-.19,0s0,.11,0,.17v0h0c-.06.06,0,.12,0,.18,0,1,0,2,0,3a1.44,1.44,0,0,0,0,.62,4.71,4.71,0,0,0,0,.84.1.1,0,0,0,0,.13s0,.07,0,.11v6.56a2,2,0,0,0,0,.24.11.11,0,0,0,0,.18v.6s0,.06,0,.09-.05.27.14.33a.06.06,0,0,0,0,.09c.08-.05.2,0,.25-.09l.41.1c-.36,0-.06.31-.3.36l.34.06.18,0h.18a.42.42,0,0,0,.43,0c.2,0,.52,0,.42.31,0,.06-.05.2.09.18s0-.13,0-.21.3.08.25-.14l.12,0c0,.06,0,.09.1.06s0-.11,0-.17a.1.1,0,0,1,.05,0,.77.77,0,0,1,.49.09c0-.14-.15-.14-.17-.23.13,0,.12-.19.17-.13.17.21.41,0,.58.12s.19,0,.16.16a4.87,4.87,0,0,0,0,.66c0,.23.11.19.26.18l.08,0,.45,0c.07,0,.18,0,.13-.1-.22-.36.11-.31.33-.34a.78.78,0,0,0,.37,0c.14,0,.31-.05.42,0s0,.2.18.13.07-.17,0-.24c-.14-.34.31-.53.26-.84l.15,0c.07,0,0,.09,0,.14-.07.32.25.2.39.23s.22-.1.19-.24a5.09,5.09,0,0,1,0-.55v0l.31-.07c.23-.11.46-.29.71,0,0,0,.06,0,.08,0,.3,0,.34.12.33.31s0,.13,0,.19,0,.09.07.1.12,0,.11-.1a4.42,4.42,0,0,1,0-.63A.22.22,0,0,0,224.94,397.29Zm-8.41.72h0l0,.05Zm2.07-1.38a1.18,1.18,0,0,0-.37.2,1.18,1.18,0,0,1,.37-.2v0Zm.88-.15s0-.05,0-.06,0,0,0,.06h0Z"/><g id="_3" data-name="3"><path class="cls-16" d="M56.94,245.8Q43.37,311.09,29.8,376.39H65.41c1.09-6.66,1.63-10,2.72-16.66H51.58q10.5-57,21-113.93Z"/><path class="cls-16" d="M110.61,245.74a28.65,28.65,0,0,0-9.85-1.8,32.56,32.56,0,0,0-10.31,1.8,31.38,31.38,0,0,0-10.09,5.66l-14,91.32H84.3l5-38.13h7.93l-4.53,38.13h17.91l8.73-91.32A22.69,22.69,0,0,0,110.61,245.74ZM98.92,289.93H91.15q2-15.46,4-30.93c.12-.89.58-1.33,1.38-1.33h5c.8,0,1.15.44,1,1.33Z"/><path class="cls-16" d="M152.53,262.47h8.9L162,245.8h-36l-1.44,16.67h8.9l1.22,1.46q-2.82,39.4-5.65,78.79h18.41q1.88-39.39,3.76-78.79Z"/><path class="cls-16" d="M184.07,245.8H168.3q-1.12,48.46-2.26,96.92h18Q184.07,294.26,184.07,245.8Z"/><path class="cls-16" d="M211.56,342.72q-1.16-32.4-2.32-64.79c3.27,5.87,4.93,8.8,8.33,14.66l2.34,50.13h18q-3.4-48.47-6.8-96.92H215.49c.38,8.16.57,12.24,1,20.4C212,258,209.83,254,205.62,245.8H192.43q.62,48.46,1.22,96.92Z"/><path class="cls-16" d="M268.57,245.74a32.34,32.34,0,0,0-10.28-1.8,28.82,28.82,0,0,0-9.88,1.8,23.13,23.13,0,0,0-8.76,5.66q3.53,42.86,7,85.72a33,33,0,0,0,11,5.67,41.29,41.29,0,0,0,11.74,1.8,37.34,37.34,0,0,0,11.34-1.8,25,25,0,0,0,9.76-5.67l-12-85.72A30.92,30.92,0,0,0,268.57,245.74Zm2.14,85.12h-5.56a1.33,1.33,0,0,1-1.47-1.34L256.24,259c-.09-.89.26-1.33,1.06-1.33h5c.8,0,1.25.44,1.36,1.33q4.1,35.26,8.2,70.52C272,330.41,271.59,330.86,270.71,330.86Z"/><path class="cls-16" d="M335.62,303.66a40.39,40.39,0,0,0-2.07-7.2q-12.57-6.18-25-12.53a2.87,2.87,0,0,1-1-.73,6,6,0,0,1-.48-1.8l-3.9-22.4c-.15-.89.17-1.33,1-1.33H309a1.39,1.39,0,0,1,1.45,1.33c1.31,7.09,2,10.64,3.27,17.73H330c-2.1-10.13-3.16-15.2-5.26-25.33a34,34,0,0,0-10.3-5.66,32.4,32.4,0,0,0-10.29-1.8,26.57,26.57,0,0,0-9.6,1.8,21.25,21.25,0,0,0-8.2,5.66l5.22,34.53c.16,1.07.38,2.31.67,3.73a32.74,32.74,0,0,0,.87,3.47q12.21,6.21,24.52,12.26a3.85,3.85,0,0,1,1.68,1.2A11.15,11.15,0,0,1,320,309q4.83,26.14,9.67,52.28c.16.89-.22,1.34-1.14,1.34h-5.66a1.47,1.47,0,0,1-1.62-1.34l-3-17.06H300.39c1.5,9.86,2.24,14.8,3.73,24.66a38.1,38.1,0,0,0,11.66,5.67,43.72,43.72,0,0,0,12.14,1.8,38,38,0,0,0,11.57-1.8,24.41,24.41,0,0,0,9.68-5.67Q342.39,336.26,335.62,303.66Z"/></g><g id="_2" data-name="2"><path class="cls-17" d="M56.94,245.8Q43.37,311.09,29.8,376.39H65.41c1.09-6.66,1.63-10,2.72-16.66H51.58q10.5-57,21-113.93Z"/><path class="cls-18" d="M110.61,245.74a28.65,28.65,0,0,0-9.85-1.8,32.56,32.56,0,0,0-10.31,1.8,31.38,31.38,0,0,0-10.09,5.66l-14,91.32H84.3l5-38.13h7.93l-4.53,38.13h17.91l8.73-91.32A22.69,22.69,0,0,0,110.61,245.74ZM98.92,289.93H91.15q2-15.46,4-30.93c.12-.89.58-1.33,1.38-1.33h5c.8,0,1.15.44,1,1.33Z"/><path class="cls-19" d="M152.53,262.47h8.9L162,245.8h-36l-1.44,16.67h8.9l1.22,1.46q-2.82,39.4-5.65,78.79h18.41q1.88-39.39,3.76-78.79Z"/><path class="cls-20" d="M184.07,245.8H168.3q-1.12,48.46-2.26,96.92h18Q184.07,294.26,184.07,245.8Z"/><path class="cls-21" d="M211.56,342.72q-1.16-32.4-2.32-64.79c3.27,5.87,4.93,8.8,8.33,14.66l2.34,50.13h18q-3.4-48.47-6.8-96.92H215.49c.38,8.16.57,12.24,1,20.4C212,258,209.83,254,205.62,245.8H192.43q.62,48.46,1.22,96.92Z"/><path class="cls-22" d="M268.57,245.74a32.34,32.34,0,0,0-10.28-1.8,28.82,28.82,0,0,0-9.88,1.8,23.13,23.13,0,0,0-8.76,5.66q3.53,42.86,7,85.72a33,33,0,0,0,11,5.67,41.29,41.29,0,0,0,11.74,1.8,37.34,37.34,0,0,0,11.34-1.8,25,25,0,0,0,9.76-5.67l-12-85.72A30.92,30.92,0,0,0,268.57,245.74Zm2.14,85.12h-5.56a1.33,1.33,0,0,1-1.47-1.34L256.24,259c-.09-.89.26-1.33,1.06-1.33h5c.8,0,1.25.44,1.36,1.33q4.1,35.26,8.2,70.52C272,330.41,271.59,330.86,270.71,330.86Z"/><path class="cls-23" d="M335.62,303.66a40.39,40.39,0,0,0-2.07-7.2q-12.57-6.18-25-12.53a2.87,2.87,0,0,1-1-.73,6,6,0,0,1-.48-1.8l-3.9-22.4c-.15-.89.17-1.33,1-1.33H309a1.39,1.39,0,0,1,1.45,1.33c1.31,7.09,2,10.64,3.27,17.73H330c-2.1-10.13-3.16-15.2-5.26-25.33a34,34,0,0,0-10.3-5.66,32.4,32.4,0,0,0-10.29-1.8,26.57,26.57,0,0,0-9.6,1.8,21.25,21.25,0,0,0-8.2,5.66l5.22,34.53c.16,1.07.38,2.31.67,3.73a32.74,32.74,0,0,0,.87,3.47q12.21,6.21,24.52,12.26a3.85,3.85,0,0,1,1.68,1.2A11.15,11.15,0,0,1,320,309q4.83,26.14,9.67,52.28c.16.89-.22,1.34-1.14,1.34h-5.66a1.47,1.47,0,0,1-1.62-1.34l-3-17.06H300.39c1.5,9.86,2.24,14.8,3.73,24.66a38.1,38.1,0,0,0,11.66,5.67,43.72,43.72,0,0,0,12.14,1.8,38,38,0,0,0,11.57-1.8,24.41,24.41,0,0,0,9.68-5.67Q342.39,336.26,335.62,303.66Z"/></g><g id="_1" data-name="1"><path class="cls-16" d="M67.79,249.8,47.64,359l-.87,4.73H63.43l-.5,3L62,372.39H34.71L60.2,249.8h7.59m4.81-4H56.94Q43.37,311.09,29.8,376.39H65.41c1.09-6.66,1.63-10,2.72-16.66H51.58q10.5-57,21-113.93Z"/><path class="cls-16" d="M100.76,247.94a24.75,24.75,0,0,1,8.49,1.55,18.61,18.61,0,0,1,5.88,3.47l-8.2,85.76H97.15l1.73-14.59,2.27-19.06.53-4.48h-16l-.45,3.49-2.47,19.06-2,15.58H71l3.12-20.39,9.92-64.76a27.31,27.31,0,0,1,7.64-4,28.64,28.64,0,0,1,9-1.59m-14.16,46h15.88l.41-3.53,3.68-30.93a5.1,5.1,0,0,0-1.19-4.16,5,5,0,0,0-3.82-1.64h-5a5.26,5.26,0,0,0-5.34,4.82l-4,30.92-.58,4.52m14.16-50a32.56,32.56,0,0,0-10.31,1.8,31.38,31.38,0,0,0-10.09,5.66l-14,91.32H84.3l5-38.13h7.93l-4.53,38.13h17.91l8.73-91.32a22.69,22.69,0,0,0-8.68-5.66,28.65,28.65,0,0,0-9.85-1.8Zm-9.61,46q2-15.46,4-30.93c.12-.89.58-1.33,1.38-1.33h5c.8,0,1.15.44,1,1.33q-1.84,15.47-3.68,30.93Z"/><path class="cls-16" d="M157.84,249.8l-.21,6.52-.07,2.15H150.8l-1.18,1.25-1.38,1.46-1,1.08-.07,1.48-3.57,75h-10.3l5.34-74.5.11-1.6-1-1.24-1.2-1.46-1.2-1.45h-6.43l.75-8.67h28.23m4.14-4h-36c-.58,6.67-.86,10-1.44,16.67h8.9l1.22,1.46q-2.82,39.4-5.65,78.79h18.41q1.88-39.39,3.76-78.79l1.39-1.46h8.9L162,245.8Z"/><path class="cls-16" d="M180.07,249.8v88.92h-10l.22-9.28,1.86-79.64h7.86m4-4H168.3q-1.12,48.46-2.26,96.92h18q0-48.47,0-96.92Z"/><path class="cls-16" d="M196.48,249.8h6.71c3.54,6.84,5.67,10.84,9.74,18.31l8.33,15.26L220.44,266l-.27-5.83-.49-10.38h7.74l5,71.8,1.2,17.12h-9.93l-2.17-46.31,0-1-.49-.84c-3.4-5.87-5-8.74-8.29-14.61l-8.09-14.52.59,16.61,1.16,32.12,1,28.53H197.6L197.38,321l-.9-71.21m-4-4q.62,48.46,1.22,96.92h17.91q-1.16-32.4-2.32-64.79c3.27,5.87,4.93,8.8,8.33,14.66l2.34,50.13h18q-3.4-48.47-6.8-96.92H215.49c.38,8.16.57,12.24,1,20.4C212,258,209.83,254,205.62,245.8Z"/><path class="cls-16" d="M258.29,247.94h0a28.47,28.47,0,0,1,9,1.59,26.68,26.68,0,0,1,7.54,4l11.45,82a21.56,21.56,0,0,1-6.71,3.46,33.49,33.49,0,0,1-10.13,1.62,37.23,37.23,0,0,1-10.6-1.64,29.13,29.13,0,0,1-8.32-4l-1.36-16.58L243.79,253a18.83,18.83,0,0,1,6-3.49,24.69,24.69,0,0,1,8.52-1.56m6.86,86.92h5.56a5,5,0,0,0,5.14-5.8l-1.75-15.12-6.45-55.4a5.24,5.24,0,0,0-5.33-4.87h-5a5,5,0,0,0-3.81,1.62,5.15,5.15,0,0,0-1.23,4.13l7.44,70.52a5.29,5.29,0,0,0,5.45,4.92m-6.86-90.92a28.82,28.82,0,0,0-9.88,1.8,23.13,23.13,0,0,0-8.76,5.66q3.53,42.86,7,85.72a33,33,0,0,0,11,5.67,41.29,41.29,0,0,0,11.74,1.8,37.34,37.34,0,0,0,11.34-1.8,25,25,0,0,0,9.76-5.67l-12-85.72a30.92,30.92,0,0,0-10-5.66,32.34,32.34,0,0,0-10.28-1.8Zm6.86,86.92a1.33,1.33,0,0,1-1.47-1.34L256.24,259c-.09-.89.26-1.33,1.06-1.33h5c.8,0,1.25.44,1.36,1.33q4.1,35.26,8.2,70.52c.1.89-.29,1.34-1.17,1.34Z"/><path class="cls-16" d="M304.17,247.94a28.63,28.63,0,0,1,9,1.59,29.75,29.75,0,0,1,7.95,4.16l4,19h-8l-2.67-14.46a5.33,5.33,0,0,0-5.38-4.6h-4.91a4.94,4.94,0,0,0-3.87,1.72,5.14,5.14,0,0,0-1,4.3l3.9,22.39a8.13,8.13,0,0,0,1.12,3.38,6.42,6.42,0,0,0,2.4,2l0,0h0c7.78,4,15.73,7.95,23.67,11.86a44.09,44.09,0,0,1,1.34,5.12L338.26,336l6.52,31.36a21.24,21.24,0,0,1-6.51,3.35,34.37,34.37,0,0,1-10.35,1.61,39.94,39.94,0,0,1-11-1.65,33.94,33.94,0,0,1-9.07-4.14l-1.2-7.92L305,348.21h9.82l2.4,13.75a5.42,5.42,0,0,0,5.56,4.65h5.66a5,5,0,0,0,5.07-6.07l-9.67-52.28a12.83,12.83,0,0,0-1-3.5,7.17,7.17,0,0,0-3.49-3c-7.66-3.77-15.35-7.61-22.88-11.43-.1-.45-.22-.95-.33-1.5-.27-1.35-.49-2.54-.64-3.53l-.61-4-4.31-28.52a16.93,16.93,0,0,1,5.38-3.33,22.46,22.46,0,0,1,8.17-1.53m0-4a26.57,26.57,0,0,0-9.6,1.8,21.25,21.25,0,0,0-8.2,5.66l5.22,34.53c.16,1.07.38,2.31.67,3.73a32.74,32.74,0,0,0,.87,3.47q12.21,6.21,24.52,12.26a3.85,3.85,0,0,1,1.68,1.2A11.15,11.15,0,0,1,320,309q4.83,26.14,9.67,52.28c.16.89-.22,1.34-1.14,1.34h-5.66a1.47,1.47,0,0,1-1.62-1.34l-3-17.06H300.39c1.5,9.86,2.24,14.8,3.73,24.66a38.1,38.1,0,0,0,11.66,5.67,43.72,43.72,0,0,0,12.14,1.8,38,38,0,0,0,11.57-1.8,24.41,24.41,0,0,0,9.68-5.67q-6.78-32.61-13.55-65.21a40.39,40.39,0,0,0-2.07-7.2q-12.57-6.18-25-12.53a2.87,2.87,0,0,1-1-.73,6,6,0,0,1-.48-1.8l-3.9-22.4c-.15-.89.17-1.33,1-1.33H309a1.39,1.39,0,0,1,1.45,1.33c1.31,7.09,2,10.64,3.27,17.73H330c-2.1-10.13-3.16-15.2-5.26-25.33a34,34,0,0,0-10.3-5.66,32.4,32.4,0,0,0-10.29-1.8Z"/></g><g id="barra"><path class="cls-9" d="M183.75,371.2s73.13,1,103,13.47l-40.89,18.76L264.09,388l10.1-1.44s-12.5-6.74-90.44-8.66"/><path class="cls-9" d="M183.75,371.2s-73.12,1-102.94,13.47l40.89,18.76L103.42,388,93.31,386.6s12.51-6.74,90.44-8.66"/></g></g></g></g></svg>